<?xml version="1.0" encoding="UTF-8" standalone="no"?>
<!DOCTYPE svg PUBLIC "-//W3C//DTD SVG 1.1//EN"
 "http://www.w3.org/Graphics/SVG/1.1/DTD/svg11.dtd">
<!-- Generated by graphviz version 2.38.0 (20140413.2041)
 -->
<!-- Title: G Pages: 1 -->
<svg width="802pt" height="499pt"
 viewBox="0.00 0.00 802.00 499.09" xmlns="http://www.w3.org/2000/svg" xmlns:xlink="http://www.w3.org/1999/xlink">
<g id="graph0" class="graph" transform="scale(1 1) rotate(0) translate(4 495.09)">
<title>G</title>
<polygon fill="white" stroke="none" points="-4,4 -4,-495.09 798,-495.09 798,4 -4,4"/>
<g id="clust2" class="cluster"><title>cluster_Vol</title>
<polygon fill="none" stroke="black" points="157,-8 157,-141.74 673,-141.74 673,-8 157,-8"/>
<text text-anchor="middle" x="415" y="-129.74" font-family="Helvetica,sans-Serif" font-size="10.00">Vol</text>
</g>
<g id="clust1" class="cluster"><title>cluster_Apps</title>
<polygon fill="none" stroke="black" points="8,-8 8,-141.74 149,-141.74 149,-8 8,-8"/>
<text text-anchor="middle" x="78.5" y="-129.74" font-family="Helvetica,sans-Serif" font-size="10.00">Apps</text>
</g>
<!-- INIT -->
<g id="node1" class="node"><title>INIT</title>
</g>
<!-- Off -->
<g id="node2" class="node"><title>Off</title>
<ellipse fill="none" stroke="black" cx="665" cy="-405.785" rx="27" ry="13.3704"/>
<text text-anchor="middle" x="665" y="-403.285" font-family="Helvetica,sans-Serif" font-size="10.00">Off</text>
</g>
<!-- INIT&#45;&gt;Off -->
<g id="edge1" class="edge"><title>INIT&#45;&gt;Off</title>
<path fill="none" stroke="black" d="M630.316,-464.485C636.399,-454.366 645.194,-439.733 652.406,-427.736"/>
<polygon fill="black" stroke="black" points="655.616,-429.19 657.768,-418.816 649.616,-425.584 655.616,-429.19"/>
<text text-anchor="middle" x="658.5" y="-439.82" font-family="Helvetica,sans-Serif" font-size="8.00">INITIAL</text>
</g>
<!-- Standby -->
<g id="node3" class="node"><title>Standby</title>
<ellipse fill="none" stroke="black" cx="665" cy="-333.915" rx="37.4533" ry="13.3704"/>
<text text-anchor="middle" x="665" y="-331.415" font-family="Helvetica,sans-Serif" font-size="10.00">Standby</text>
</g>
<!-- Off&#45;&gt;Standby -->
<g id="edge2" class="edge"><title>Off&#45;&gt;Standby</title>
<path fill="none" stroke="black" d="M665,-392.294C665,-382.775 665,-369.402 665,-357.96"/>
<polygon fill="black" stroke="black" points="668.5,-357.771 665,-347.771 661.5,-357.771 668.5,-357.771"/>
<text text-anchor="middle" x="691" y="-367.95" font-family="Helvetica,sans-Serif" font-size="8.00">PowerApplied</text>
</g>
<!-- Booting -->
<g id="node4" class="node"><title>Booting</title>
<ellipse fill="none" stroke="black" cx="594" cy="-262.045" rx="35.2113" ry="13.3704"/>
<text text-anchor="middle" x="594" y="-259.545" font-family="Helvetica,sans-Serif" font-size="10.00">Booting</text>
</g>
<!-- Standby&#45;&gt;Booting -->
<g id="edge3" class="edge"><title>Standby&#45;&gt;Booting</title>
<path fill="none" stroke="black" d="M632.8,-327.001C618.769,-322.672 603.591,-315.228 595,-302.48 591.699,-297.582 590.509,-291.508 590.382,-285.606"/>
<polygon fill="black" stroke="black" points="593.885,-285.677 591.075,-275.461 586.901,-285.199 593.885,-285.677"/>
<text text-anchor="middle" x="619" y="-296.08" font-family="Helvetica,sans-Serif" font-size="8.00">PowerButton</text>
</g>
<!-- Standby&#45;&gt;Booting -->
<g id="edge4" class="edge"><title>Standby&#45;&gt;Booting</title>
<path fill="none" stroke="black" d="M660.047,-320.493C656.278,-312.156 650.468,-301.308 643,-293.48 637.582,-287.802 630.889,-282.747 624.209,-278.468"/>
<polygon fill="black" stroke="black" points="625.613,-275.23 615.229,-273.125 622.034,-281.246 625.613,-275.23"/>
<text text-anchor="middle" x="667" y="-296.08" font-family="Helvetica,sans-Serif" font-size="8.00">IgnitionOn</text>
</g>
<!-- NormalOp -->
<g id="node5" class="node"><title>NormalOp</title>
<ellipse fill="none" stroke="black" cx="571" cy="-190.175" rx="42.3529" ry="13.3704"/>
<text text-anchor="middle" x="571" y="-187.675" font-family="Helvetica,sans-Serif" font-size="10.00">NormalOp</text>
</g>
<!-- Booting&#45;&gt;NormalOp -->
<g id="edge5" class="edge"><title>Booting&#45;&gt;NormalOp</title>
<path fill="none" stroke="black" d="M589.888,-248.554C586.65,-238.717 582.057,-224.765 578.211,-213.081"/>
<polygon fill="black" stroke="black" points="581.528,-211.963 575.076,-203.558 574.879,-214.151 581.528,-211.963"/>
<text text-anchor="middle" x="613.5" y="-224.21" font-family="Helvetica,sans-Serif" font-size="8.00">bootTmr_Expired</text>
</g>
<!-- NormalOp&#45;&gt;NormalOp -->
<g id="edge19" class="edge"><title>NormalOp&#45;&gt;NormalOp</title>
<path fill="none" stroke="black" d="M608.471,-196.55C621.197,-196.583 631.426,-194.458 631.426,-190.175 631.426,-187.164 626.369,-185.219 618.943,-184.341"/>
<polygon fill="black" stroke="black" points="618.638,-180.821 608.471,-183.801 618.277,-187.812 618.638,-180.821"/>
<text text-anchor="middle" x="663.426" y="-188.275" font-family="Helvetica,sans-Serif" font-size="8.00">clockTmr_Expired</text>
</g>
<!-- Shutdown -->
<g id="node6" class="node"><title>Shutdown</title>
<ellipse fill="none" stroke="black" cx="723" cy="-101.305" rx="41.9398" ry="13.3704"/>
<text text-anchor="middle" x="723" y="-98.8051" font-family="Helvetica,sans-Serif" font-size="10.00">Shutdown</text>
</g>
<!-- NormalOp&#45;&gt;Shutdown -->
<g id="edge17" class="edge"><title>NormalOp&#45;&gt;Shutdown</title>
<path fill="none" stroke="black" d="M594.879,-178.921C623.816,-166.429 669.634,-146.407 677,-141.74 686.136,-135.952 695.353,-128.453 703.112,-121.55"/>
<polygon fill="black" stroke="black" points="705.894,-123.747 710.888,-114.403 701.157,-118.594 705.894,-123.747"/>
<text text-anchor="middle" x="685" y="-152.34" font-family="Helvetica,sans-Serif" font-size="8.00">PowerButton</text>
</g>
<!-- NormalOp&#45;&gt;Shutdown -->
<g id="edge18" class="edge"><title>NormalOp&#45;&gt;Shutdown</title>
<path fill="none" stroke="black" d="M577.308,-176.622C582.591,-167.53 591.028,-155.812 602,-149.74 631.331,-133.509 646.222,-155.025 677,-141.74 687.575,-137.175 697.52,-129.301 705.438,-121.783"/>
<polygon fill="black" stroke="black" points="708.081,-124.088 712.63,-114.52 703.107,-119.163 708.081,-124.088"/>
<text text-anchor="middle" x="620.5" y="-152.34" font-family="Helvetica,sans-Serif" font-size="8.00">IgnitionOff</text>
</g>
<!-- Apps_Radio -->
<g id="node8" class="node"><title>Apps_Radio</title>
<ellipse fill="none" stroke="black" cx="97" cy="-101.305" rx="28.9828" ry="13.3704"/>
<text text-anchor="middle" x="97" y="-98.8051" font-family="Helvetica,sans-Serif" font-size="10.00">Radio</text>
</g>
<!-- NormalOp&#45;&gt;Apps_Radio -->
<g id="edge8" class="edge"><title>NormalOp&#45;&gt;Apps_Radio</title>
<path fill="none" stroke="lightgrey" d="M529.545,-187.084C437.995,-182.046 221.269,-167.692 153,-141.74 139.975,-136.789 127.14,-128.107 117.05,-120.148"/>
<polygon fill="lightgrey" stroke="lightgrey" points="119.217,-117.397 109.277,-113.729 114.76,-122.795 119.217,-117.397"/>
</g>
<!-- Vol_On -->
<g id="node10" class="node"><title>Vol_On</title>
<ellipse fill="none" stroke="black" cx="447" cy="-101.305" rx="27" ry="13.3704"/>
<text text-anchor="middle" x="447" y="-98.8051" font-family="Helvetica,sans-Serif" font-size="10.00">On</text>
</g>
<!-- NormalOp&#45;&gt;Vol_On -->
<g id="edge16" class="edge"><title>NormalOp&#45;&gt;Vol_On</title>
<path fill="none" stroke="lightgrey" d="M554.534,-177.639C532.942,-162.513 494.929,-135.882 470.366,-118.674"/>
<polygon fill="lightgrey" stroke="lightgrey" points="472.179,-115.671 461.98,-112.8 468.162,-121.404 472.179,-115.671"/>
</g>
<!-- Shutdown&#45;&gt;Standby -->
<g id="edge20" class="edge"><title>Shutdown&#45;&gt;Standby</title>
<path fill="none" stroke="black" d="M722.982,-115.11C722.49,-147.804 718.333,-236.438 689,-302.48 687.357,-306.18 685.161,-309.821 682.762,-313.227"/>
<polygon fill="black" stroke="black" points="679.998,-311.08 676.583,-321.11 685.507,-315.399 679.998,-311.08"/>
<text text-anchor="middle" x="753" y="-224.21" font-family="Helvetica,sans-Serif" font-size="8.00">shutdownTmr_Expired</text>
</g>
<!-- ANY -->
<g id="node7" class="node"><title>ANY</title>
<text text-anchor="middle" x="708" y="-475.155" font-family="Helvetica,sans-Serif" font-size="10.00">from any state</text>
</g>
<!-- ANY&#45;&gt;Off -->
<g id="edge21" class="edge"><title>ANY&#45;&gt;Off</title>
<path fill="none" stroke="black" d="M702.727,-468.088C696.605,-458.14 686.285,-441.372 677.985,-427.885"/>
<polygon fill="black" stroke="black" points="680.86,-425.878 672.638,-419.196 674.899,-429.547 680.86,-425.878"/>
<text text-anchor="middle" x="718" y="-439.82" font-family="Helvetica,sans-Serif" font-size="8.00">PowerRemoved</text>
</g>
<!-- Apps_Navi -->
<g id="node9" class="node"><title>Apps_Navi</title>
<ellipse fill="none" stroke="black" cx="70" cy="-29.435" rx="27" ry="13.3704"/>
<text text-anchor="middle" x="70" y="-26.935" font-family="Helvetica,sans-Serif" font-size="10.00">Navi</text>
</g>
<!-- Apps_Radio&#45;&gt;Apps_Navi -->
<g id="edge6" class="edge"><title>Apps_Radio&#45;&gt;Apps_Navi</title>
<path fill="none" stroke="black" d="M71.4547,-94.651C58.1342,-90.2661 42.99,-82.6929 35,-69.8701 29.5887,-61.1856 35.5761,-52.5665 44.0396,-45.6115"/>
<polygon fill="black" stroke="black" points="46.1544,-48.4021 52.2522,-39.738 42.0823,-42.7084 46.1544,-48.4021"/>
<text text-anchor="middle" x="55" y="-63.4701" font-family="Helvetica,sans-Serif" font-size="8.00">NaviButton</text>
</g>
<!-- Apps_Navi&#45;&gt;Apps_Radio -->
<g id="edge7" class="edge"><title>Apps_Navi&#45;&gt;Apps_Radio</title>
<path fill="none" stroke="black" d="M74.7853,-42.8183C78.5746,-52.6243 83.9638,-66.5704 88.4851,-78.2705"/>
<polygon fill="black" stroke="black" points="85.3036,-79.7476 92.1729,-87.8137 91.8331,-77.2243 85.3036,-79.7476"/>
<text text-anchor="middle" x="108" y="-63.4701" font-family="Helvetica,sans-Serif" font-size="8.00">RadioButton</text>
</g>
<!-- Vol_IncVol -->
<g id="node11" class="node"><title>Vol_IncVol</title>
<ellipse fill="none" stroke="black" cx="240" cy="-29.435" rx="31.2258" ry="13.3704"/>
<text text-anchor="middle" x="240" y="-26.935" font-family="Helvetica,sans-Serif" font-size="10.00">IncVol</text>
</g>
<!-- Vol_On&#45;&gt;Vol_IncVol -->
<g id="edge10" class="edge"><title>Vol_On&#45;&gt;Vol_IncVol</title>
<path fill="none" stroke="black" d="M420.316,-99.193C356.57,-96.2632 199.556,-87.3299 184,-69.8701 173.655,-58.2589 188.495,-48.2194 205.487,-41.176"/>
<polygon fill="black" stroke="black" points="206.885,-44.3892 215.003,-37.5803 204.411,-37.8411 206.885,-44.3892"/>
<text text-anchor="middle" x="208.5" y="-63.4701" font-family="Helvetica,sans-Serif" font-size="8.00">VolKnobRight</text>
</g>
<!-- Vol_DecVol -->
<g id="node12" class="node"><title>Vol_DecVol</title>
<ellipse fill="none" stroke="black" cx="352" cy="-29.435" rx="33.8824" ry="13.3704"/>
<text text-anchor="middle" x="352" y="-26.935" font-family="Helvetica,sans-Serif" font-size="10.00">DecVol</text>
</g>
<!-- Vol_On&#45;&gt;Vol_DecVol -->
<g id="edge11" class="edge"><title>Vol_On&#45;&gt;Vol_DecVol</title>
<path fill="none" stroke="black" d="M421.524,-96.7718C392.588,-92.1755 348.067,-83.1333 338,-69.8701 333.868,-64.4268 334.663,-57.6597 337.322,-51.2763"/>
<polygon fill="black" stroke="black" points="340.451,-52.8482 342.194,-42.3976 334.315,-49.4807 340.451,-52.8482"/>
<text text-anchor="middle" x="361" y="-63.4701" font-family="Helvetica,sans-Serif" font-size="8.00">VolKnobLeft</text>
</g>
<!-- Vol_Mute -->
<g id="node13" class="node"><title>Vol_Mute</title>
<ellipse fill="none" stroke="black" cx="552" cy="-29.435" rx="27" ry="13.3704"/>
<text text-anchor="middle" x="552" y="-26.935" font-family="Helvetica,sans-Serif" font-size="10.00">Mute</text>
</g>
<!-- Vol_On&#45;&gt;Vol_Mute -->
<g id="edge9" class="edge"><title>Vol_On&#45;&gt;Vol_Mute</title>
<path fill="none" stroke="black" d="M457.604,-88.5942C465.652,-80.1664 477.294,-68.9127 489,-60.8701 499.299,-53.7944 511.493,-47.491 522.397,-42.4816"/>
<polygon fill="black" stroke="black" points="523.837,-45.6717 531.567,-38.4257 521.005,-39.27 523.837,-45.6717"/>
<text text-anchor="middle" x="509.5" y="-63.4701" font-family="Helvetica,sans-Serif" font-size="8.00">MuteButton</text>
</g>
<!-- Vol_IncVol&#45;&gt;Vol_On -->
<g id="edge12" class="edge"><title>Vol_IncVol&#45;&gt;Vol_On</title>
<path fill="none" stroke="black" d="M247.03,-42.784C252.817,-51.7685 261.867,-63.4426 273,-69.8701 315.302,-94.2922 372.321,-100.106 409.369,-101.013"/>
<polygon fill="black" stroke="black" points="409.678,-104.517 419.723,-101.151 409.771,-97.518 409.678,-104.517"/>
<text text-anchor="middle" x="302.5" y="-63.4701" font-family="Helvetica,sans-Serif" font-size="8.00">VolChangeDone</text>
</g>
<!-- Vol_DecVol&#45;&gt;Vol_On -->
<g id="edge13" class="edge"><title>Vol_DecVol&#45;&gt;Vol_On</title>
<path fill="none" stroke="black" d="M367.194,-41.61C382.654,-52.9803 406.792,-70.7328 424.475,-83.7387"/>
<polygon fill="black" stroke="black" points="422.442,-86.588 432.572,-89.6933 426.589,-80.9489 422.442,-86.588"/>
<text text-anchor="middle" x="434.5" y="-63.4701" font-family="Helvetica,sans-Serif" font-size="8.00">VolChangeDone</text>
</g>
<!-- Vol_Mute&#45;&gt;Vol_On -->
<g id="edge14" class="edge"><title>Vol_Mute&#45;&gt;Vol_On</title>
<path fill="none" stroke="black" d="M547.684,-42.9981C544.144,-51.6176 538.347,-62.7434 530,-69.8701 516.404,-81.4786 497.996,-88.8243 481.971,-93.383"/>
<polygon fill="black" stroke="black" points="480.666,-90.1049 471.858,-95.993 482.416,-96.8828 480.666,-90.1049"/>
<text text-anchor="middle" x="558.5" y="-63.4701" font-family="Helvetica,sans-Serif" font-size="8.00">MuteButton</text>
</g>
<!-- Vol_Mute&#45;&gt;Vol_On -->
<g id="edge15" class="edge"><title>Vol_Mute&#45;&gt;Vol_On</title>
<path fill="none" stroke="black" d="M568.199,-40.1977C579.437,-48.2019 591.057,-59.8104 583,-69.8701 570.748,-85.1672 519.536,-93.2919 483.583,-97.1959"/>
<polygon fill="black" stroke="black" points="483.027,-93.7343 473.434,-98.2314 483.737,-100.698 483.027,-93.7343"/>
<text text-anchor="middle" x="609.5" y="-63.4701" font-family="Helvetica,sans-Serif" font-size="8.00">VolKnobRight</text>
</g>
</g>
</svg>
