<?xml version="1.0" encoding="UTF-8" standalone="no"?>
<!DOCTYPE svg PUBLIC "-//W3C//DTD SVG 1.1//EN"
 "http://www.w3.org/Graphics/SVG/1.1/DTD/svg11.dtd">
<!-- Generated by graphviz version 2.38.0 (20140413.2041)
 -->
<!-- Title: G Pages: 1 -->
<svg width="803pt" height="499pt"
 viewBox="0.00 0.00 803.00 499.09" xmlns="http://www.w3.org/2000/svg" xmlns:xlink="http://www.w3.org/1999/xlink">
<g id="graph0" class="graph" transform="scale(1 1) rotate(0) translate(4 495.09)">
<title>G</title>
<polygon fill="white" stroke="none" points="-4,4 -4,-495.09 799,-495.09 799,4 -4,4"/>
<g id="clust1" class="cluster"><title>cluster_Apps</title>
<polygon fill="none" stroke="black" points="8,-8 8,-141.74 149,-141.74 149,-8 8,-8"/>
<text text-anchor="middle" x="78.5" y="-129.74" font-family="Helvetica,sans-Serif" font-size="10.00">Apps</text>
</g>
<g id="clust2" class="cluster"><title>cluster_Vol</title>
<polygon fill="none" stroke="black" points="157,-8 157,-141.74 673,-141.74 673,-8 157,-8"/>
<text text-anchor="middle" x="415" y="-129.74" font-family="Helvetica,sans-Serif" font-size="10.00">Vol</text>
</g>
<!-- INIT -->
<g id="node1" class="node"><title>INIT</title>
</g>
<!-- off -->
<g id="node2" class="node"><title>off</title>
<ellipse fill="none" stroke="black" cx="662" cy="-405.785" rx="27" ry="13.3704"/>
<text text-anchor="middle" x="662" y="-403.285" font-family="Helvetica,sans-Serif" font-size="10.00">off</text>
</g>
<!-- INIT&#45;&gt;off -->
<g id="edge1" class="edge"><title>INIT&#45;&gt;off</title>
<path fill="none" stroke="black" d="M632.271,-464.485C637.421,-454.489 644.84,-440.09 650.978,-428.176"/>
<polygon fill="black" stroke="black" points="654.09,-429.779 655.559,-419.287 647.867,-426.573 654.09,-429.779"/>
<text text-anchor="middle" x="658.5" y="-439.82" font-family="Helvetica,sans-Serif" font-size="8.00">INITIAL</text>
</g>
<!-- standby -->
<g id="node3" class="node"><title>standby</title>
<ellipse fill="none" stroke="black" cx="662" cy="-333.915" rx="36.125" ry="13.3704"/>
<text text-anchor="middle" x="662" y="-331.415" font-family="Helvetica,sans-Serif" font-size="10.00">standby</text>
</g>
<!-- off&#45;&gt;standby -->
<g id="edge2" class="edge"><title>off&#45;&gt;standby</title>
<path fill="none" stroke="black" d="M662,-392.294C662,-382.775 662,-369.402 662,-357.96"/>
<polygon fill="black" stroke="black" points="665.5,-357.771 662,-347.771 658.5,-357.771 665.5,-357.771"/>
<text text-anchor="middle" x="688" y="-367.95" font-family="Helvetica,sans-Serif" font-size="8.00">PowerApplied</text>
</g>
<!-- booting -->
<g id="node4" class="node"><title>booting</title>
<ellipse fill="none" stroke="black" cx="591" cy="-262.045" rx="33.8824" ry="13.3704"/>
<text text-anchor="middle" x="591" y="-259.545" font-family="Helvetica,sans-Serif" font-size="10.00">booting</text>
</g>
<!-- standby&#45;&gt;booting -->
<g id="edge3" class="edge"><title>standby&#45;&gt;booting</title>
<path fill="none" stroke="black" d="M630.525,-327.222C616.294,-322.927 600.739,-315.447 592,-302.48 588.699,-297.582 587.509,-291.508 587.382,-285.606"/>
<polygon fill="black" stroke="black" points="590.885,-285.677 588.075,-275.461 583.901,-285.199 590.885,-285.677"/>
<text text-anchor="middle" x="616" y="-296.08" font-family="Helvetica,sans-Serif" font-size="8.00">PowerButton</text>
</g>
<!-- standby&#45;&gt;booting -->
<g id="edge4" class="edge"><title>standby&#45;&gt;booting</title>
<path fill="none" stroke="black" d="M657.047,-320.493C653.278,-312.156 647.468,-301.308 640,-293.48 634.361,-287.571 627.342,-282.337 620.394,-277.949"/>
<polygon fill="black" stroke="black" points="622.134,-274.912 611.74,-272.856 618.583,-280.945 622.134,-274.912"/>
<text text-anchor="middle" x="664" y="-296.08" font-family="Helvetica,sans-Serif" font-size="8.00">IgnitionOn</text>
</g>
<!-- normal_op -->
<g id="node5" class="node"><title>normal_op</title>
<ellipse fill="none" stroke="black" cx="565" cy="-190.175" rx="43.6818" ry="13.3704"/>
<text text-anchor="middle" x="565" y="-187.675" font-family="Helvetica,sans-Serif" font-size="10.00">normal_op</text>
</g>
<!-- booting&#45;&gt;normal_op -->
<g id="edge5" class="edge"><title>booting&#45;&gt;normal_op</title>
<path fill="none" stroke="black" d="M586.352,-248.554C582.691,-238.717 577.499,-224.765 573.152,-213.081"/>
<polygon fill="black" stroke="black" points="576.376,-211.71 569.608,-203.558 569.815,-214.151 576.376,-211.71"/>
<text text-anchor="middle" x="611" y="-224.21" font-family="Helvetica,sans-Serif" font-size="8.00">boot_tmr_expired</text>
</g>
<!-- normal_op&#45;&gt;normal_op -->
<g id="edge19" class="edge"><title>normal_op&#45;&gt;normal_op</title>
<path fill="none" stroke="black" d="M603.65,-196.55C616.534,-196.55 626.841,-194.425 626.841,-190.175 626.841,-187.12 621.516,-185.164 613.737,-184.304"/>
<polygon fill="black" stroke="black" points="613.813,-180.804 603.65,-183.8 613.463,-187.795 613.813,-180.804"/>
<text text-anchor="middle" x="660.341" y="-188.275" font-family="Helvetica,sans-Serif" font-size="8.00">clock_tmr_expired</text>
</g>
<!-- shutdown -->
<g id="node6" class="node"><title>shutdown</title>
<ellipse fill="none" stroke="black" cx="722" cy="-101.305" rx="41.0244" ry="13.3704"/>
<text text-anchor="middle" x="722" y="-98.8051" font-family="Helvetica,sans-Serif" font-size="10.00">shutdown</text>
</g>
<!-- normal_op&#45;&gt;shutdown -->
<g id="edge17" class="edge"><title>normal_op&#45;&gt;shutdown</title>
<path fill="none" stroke="black" d="M589.554,-179.009C621.311,-165.827 673.055,-144.218 677,-141.74 686.045,-136.06 695.082,-128.582 702.66,-121.666"/>
<polygon fill="black" stroke="black" points="705.382,-123.909 710.241,-114.494 700.571,-118.824 705.382,-123.909"/>
<text text-anchor="middle" x="684" y="-152.34" font-family="Helvetica,sans-Serif" font-size="8.00">PowerButton</text>
</g>
<!-- normal_op&#45;&gt;shutdown -->
<g id="edge18" class="edge"><title>normal_op&#45;&gt;shutdown</title>
<path fill="none" stroke="black" d="M571.598,-176.595C577.096,-167.489 585.824,-155.764 597,-149.74 628.454,-132.785 644.223,-155.971 677,-141.74 687.434,-137.21 697.175,-129.34 704.907,-121.817"/>
<polygon fill="black" stroke="black" points="707.497,-124.173 711.92,-114.545 702.459,-119.313 707.497,-124.173"/>
<text text-anchor="middle" x="615.5" y="-152.34" font-family="Helvetica,sans-Serif" font-size="8.00">IgnitionOff</text>
</g>
<!-- Apps_radio -->
<g id="node8" class="node"><title>Apps_radio</title>
<ellipse fill="none" stroke="black" cx="97" cy="-101.305" rx="27" ry="13.3704"/>
<text text-anchor="middle" x="97" y="-98.8051" font-family="Helvetica,sans-Serif" font-size="10.00">radio</text>
</g>
<!-- normal_op&#45;&gt;Apps_radio -->
<g id="edge8" class="edge"><title>normal_op&#45;&gt;Apps_radio</title>
<path fill="none" stroke="lightgrey" d="M522.433,-186.942C431.236,-181.727 219.86,-167.219 153,-141.74 139.979,-136.778 127.144,-128.095 117.054,-120.138"/>
<polygon fill="lightgrey" stroke="lightgrey" points="119.22,-117.388 109.28,-113.722 114.765,-122.787 119.22,-117.388"/>
</g>
<!-- Vol_on -->
<g id="node10" class="node"><title>Vol_on</title>
<ellipse fill="none" stroke="black" cx="447" cy="-101.305" rx="27" ry="13.3704"/>
<text text-anchor="middle" x="447" y="-98.8051" font-family="Helvetica,sans-Serif" font-size="10.00">on</text>
</g>
<!-- normal_op&#45;&gt;Vol_on -->
<g id="edge16" class="edge"><title>normal_op&#45;&gt;Vol_on</title>
<path fill="none" stroke="lightgrey" d="M549.086,-177.459C528.558,-162.347 492.73,-135.971 469.443,-118.827"/>
<polygon fill="lightgrey" stroke="lightgrey" points="471.318,-115.861 461.19,-112.751 467.168,-121.498 471.318,-115.861"/>
</g>
<!-- shutdown&#45;&gt;standby -->
<g id="edge20" class="edge"><title>shutdown&#45;&gt;standby</title>
<path fill="none" stroke="black" d="M721.82,-115.114C720.92,-147.817 715.703,-236.469 686,-302.48 684.339,-306.172 682.133,-309.809 679.731,-313.213"/>
<polygon fill="black" stroke="black" points="676.967,-311.066 673.551,-321.095 682.475,-315.385 676.967,-311.066"/>
<text text-anchor="middle" x="752.5" y="-224.21" font-family="Helvetica,sans-Serif" font-size="8.00">shutdown_tmr_expired</text>
</g>
<!-- any -->
<g id="node7" class="node"><title>any</title>
<ellipse fill="none" stroke="black" cx="698" cy="-477.655" rx="27" ry="13.3704"/>
<text text-anchor="middle" x="698" y="-475.155" font-family="Helvetica,sans-Serif" font-size="10.00">any</text>
</g>
<!-- any&#45;&gt;off -->
<g id="edge21" class="edge"><title>any&#45;&gt;off</title>
<path fill="none" stroke="black" d="M691.729,-464.485C686.579,-454.489 679.16,-440.09 673.022,-428.176"/>
<polygon fill="black" stroke="black" points="676.133,-426.573 668.441,-419.287 669.91,-429.779 676.133,-426.573"/>
<text text-anchor="middle" x="711" y="-439.82" font-family="Helvetica,sans-Serif" font-size="8.00">PowerRemoved</text>
</g>
<!-- Apps_navi -->
<g id="node9" class="node"><title>Apps_navi</title>
<ellipse fill="none" stroke="black" cx="70" cy="-29.435" rx="27" ry="13.3704"/>
<text text-anchor="middle" x="70" y="-26.935" font-family="Helvetica,sans-Serif" font-size="10.00">navi</text>
</g>
<!-- Apps_radio&#45;&gt;Apps_navi -->
<g id="edge6" class="edge"><title>Apps_radio&#45;&gt;Apps_navi</title>
<path fill="none" stroke="black" d="M72.7175,-95.059C59.103,-90.7417 43.2436,-83.1 35,-69.8701 29.5887,-61.1856 35.5761,-52.5665 44.0396,-45.6115"/>
<polygon fill="black" stroke="black" points="46.1544,-48.4021 52.2522,-39.738 42.0823,-42.7084 46.1544,-48.4021"/>
<text text-anchor="middle" x="55" y="-63.4701" font-family="Helvetica,sans-Serif" font-size="8.00">NaviButton</text>
</g>
<!-- Apps_navi&#45;&gt;Apps_radio -->
<g id="edge7" class="edge"><title>Apps_navi&#45;&gt;Apps_radio</title>
<path fill="none" stroke="black" d="M74.7853,-42.8183C78.5746,-52.6243 83.9638,-66.5704 88.4851,-78.2705"/>
<polygon fill="black" stroke="black" points="85.3036,-79.7476 92.1729,-87.8137 91.8331,-77.2243 85.3036,-79.7476"/>
<text text-anchor="middle" x="108" y="-63.4701" font-family="Helvetica,sans-Serif" font-size="8.00">RadioButton</text>
</g>
<!-- Vol_incvol -->
<g id="node11" class="node"><title>Vol_incvol</title>
<ellipse fill="none" stroke="black" cx="225" cy="-29.435" rx="28.9828" ry="13.3704"/>
<text text-anchor="middle" x="225" y="-26.935" font-family="Helvetica,sans-Serif" font-size="10.00">incvol</text>
</g>
<!-- Vol_on&#45;&gt;Vol_incvol -->
<g id="edge10" class="edge"><title>Vol_on&#45;&gt;Vol_incvol</title>
<path fill="none" stroke="black" d="M420.316,-99.193C356.57,-96.2632 199.556,-87.3299 184,-69.8701 176.095,-60.9971 184.679,-51.7529 195.998,-44.4467"/>
<polygon fill="black" stroke="black" points="198.047,-47.3053 204.959,-39.2757 194.548,-41.2423 198.047,-47.3053"/>
<text text-anchor="middle" x="208.5" y="-63.4701" font-family="Helvetica,sans-Serif" font-size="8.00">VolKnobRight</text>
</g>
<!-- Vol_decvol -->
<g id="node12" class="node"><title>Vol_decvol</title>
<ellipse fill="none" stroke="black" cx="371" cy="-29.435" rx="31.2258" ry="13.3704"/>
<text text-anchor="middle" x="371" y="-26.935" font-family="Helvetica,sans-Serif" font-size="10.00">decvol</text>
</g>
<!-- Vol_on&#45;&gt;Vol_decvol -->
<g id="edge11" class="edge"><title>Vol_on&#45;&gt;Vol_decvol</title>
<path fill="none" stroke="black" d="M421.524,-96.7718C392.588,-92.1755 348.067,-83.1333 338,-69.8701 332.171,-62.1903 337.133,-53.9718 344.819,-47.0359"/>
<polygon fill="black" stroke="black" points="347.363,-49.4924 353.115,-40.595 343.07,-43.9634 347.363,-49.4924"/>
<text text-anchor="middle" x="361" y="-63.4701" font-family="Helvetica,sans-Serif" font-size="8.00">VolKnobLeft</text>
</g>
<!-- Vol_mute -->
<g id="node13" class="node"><title>Vol_mute</title>
<ellipse fill="none" stroke="black" cx="552" cy="-29.435" rx="27" ry="13.3704"/>
<text text-anchor="middle" x="552" y="-26.935" font-family="Helvetica,sans-Serif" font-size="10.00">mute</text>
</g>
<!-- Vol_on&#45;&gt;Vol_mute -->
<g id="edge9" class="edge"><title>Vol_on&#45;&gt;Vol_mute</title>
<path fill="none" stroke="black" d="M457.604,-88.5942C465.652,-80.1664 477.294,-68.9127 489,-60.8701 499.299,-53.7944 511.493,-47.491 522.397,-42.4816"/>
<polygon fill="black" stroke="black" points="523.837,-45.6717 531.567,-38.4257 521.005,-39.27 523.837,-45.6717"/>
<text text-anchor="middle" x="509.5" y="-63.4701" font-family="Helvetica,sans-Serif" font-size="8.00">MuteButton</text>
</g>
<!-- Vol_incvol&#45;&gt;Vol_on -->
<g id="edge12" class="edge"><title>Vol_incvol&#45;&gt;Vol_on</title>
<path fill="none" stroke="black" d="M235.676,-42.0125C244.718,-51.0698 258.494,-63.2094 273,-69.8701 317.263,-90.1944 373.576,-97.0146 409.951,-99.2639"/>
<polygon fill="black" stroke="black" points="409.938,-102.768 420.11,-99.8049 410.31,-95.7779 409.938,-102.768"/>
<text text-anchor="middle" x="302.5" y="-63.4701" font-family="Helvetica,sans-Serif" font-size="8.00">VolChangeDone</text>
</g>
<!-- Vol_decvol&#45;&gt;Vol_on -->
<g id="edge13" class="edge"><title>Vol_decvol&#45;&gt;Vol_on</title>
<path fill="none" stroke="black" d="M380.877,-42.3445C387.835,-50.4528 397.559,-61.2378 407,-69.8701 412.279,-74.6965 418.278,-79.5525 423.995,-83.9242"/>
<polygon fill="black" stroke="black" points="421.941,-86.7587 432.053,-89.923 426.122,-81.1439 421.941,-86.7587"/>
<text text-anchor="middle" x="436.5" y="-63.4701" font-family="Helvetica,sans-Serif" font-size="8.00">VolChangeDone</text>
</g>
<!-- Vol_mute&#45;&gt;Vol_on -->
<g id="edge14" class="edge"><title>Vol_mute&#45;&gt;Vol_on</title>
<path fill="none" stroke="black" d="M547.684,-42.9981C544.144,-51.6176 538.347,-62.7434 530,-69.8701 516.404,-81.4786 497.996,-88.8243 481.971,-93.383"/>
<polygon fill="black" stroke="black" points="480.666,-90.1049 471.858,-95.993 482.416,-96.8828 480.666,-90.1049"/>
<text text-anchor="middle" x="558.5" y="-63.4701" font-family="Helvetica,sans-Serif" font-size="8.00">MuteButton</text>
</g>
<!-- Vol_mute&#45;&gt;Vol_on -->
<g id="edge15" class="edge"><title>Vol_mute&#45;&gt;Vol_on</title>
<path fill="none" stroke="black" d="M568.199,-40.1977C579.437,-48.2019 591.057,-59.8104 583,-69.8701 570.748,-85.1672 519.536,-93.2919 483.583,-97.1959"/>
<polygon fill="black" stroke="black" points="483.027,-93.7343 473.434,-98.2314 483.737,-100.698 483.027,-93.7343"/>
<text text-anchor="middle" x="609.5" y="-63.4701" font-family="Helvetica,sans-Serif" font-size="8.00">VolKnobRight</text>
</g>
</g>
</svg>
