<?xml version="1.0" encoding="UTF-8" standalone="no"?>
<!DOCTYPE svg PUBLIC "-//W3C//DTD SVG 1.1//EN"
 "http://www.w3.org/Graphics/SVG/1.1/DTD/svg11.dtd">
<!-- Generated by graphviz version 2.38.0 (20140413.2041)
 -->
<!-- Title: G Pages: 1 -->
<svg width="309pt" height="277pt"
 viewBox="0.00 0.00 308.62 277.00" xmlns="http://www.w3.org/2000/svg" xmlns:xlink="http://www.w3.org/1999/xlink">
<g id="graph0" class="graph" transform="scale(1 1) rotate(0) translate(4 273)">
<title>G</title>
<polygon fill="white" stroke="none" points="-4,4 -4,-273 304.622,-273 304.622,4 -4,4"/>
<g id="clust1" class="cluster"><title>cluster_Client</title>
<polygon fill="none" stroke="black" points="215.811,-117 215.811,-216 292.622,-216 292.622,-117 215.811,-117"/>
<text text-anchor="start" x="240.217" y="-205" font-family="Helvetica,sans-Serif" font-weight="bold" font-size="10.00">Client</text>
</g>
<g id="clust2" class="cluster"><title>cluster_GW</title>
<polygon fill="none" stroke="black" points="8,-34 8,-261 187.811,-261 187.811,-34 8,-34"/>
<text text-anchor="start" x="88.9056" y="-250" font-family="Helvetica,sans-Serif" font-weight="bold" font-size="10.00">GW</text>
</g>
<g id="clust4" class="cluster"><title>cluster_GW__TxThr</title>
<polygon fill="none" stroke="black" points="109.811,-142 109.811,-234 179.811,-234 179.811,-142 109.811,-142"/>
<text text-anchor="start" x="130.811" y="-223" font-family="Helvetica,sans-Serif" font-weight="bold" font-size="10.00">TxThr</text>
</g>
<g id="clust3" class="cluster"><title>cluster_GW__RxThr</title>
<polygon fill="none" stroke="black" points="109.811,-42 109.811,-134 179.811,-134 179.811,-42 109.811,-42"/>
<text text-anchor="start" x="130.311" y="-123" font-family="Helvetica,sans-Serif" font-weight="bold" font-size="10.00">RxThr</text>
</g>
<g id="clust5" class="cluster"><title>cluster_SerDev</title>
<polygon fill="none" stroke="black" points="215.811,-8 215.811,-107 292.622,-107 292.622,-8 215.811,-8"/>
<text text-anchor="start" x="236.717" y="-96" font-family="Helvetica,sans-Serif" font-weight="bold" font-size="10.00">SerDev</text>
</g>
<!-- Client__netPort -->
<g id="node1" class="node"><title>Client__netPort</title>
<polygon fill="none" stroke="lightblue" points="281.217,-188.5 227.217,-188.5 227.217,-169.5 281.217,-169.5 281.217,-188.5"/>
<text text-anchor="middle" x="254.217" y="-176.5" font-family="Helvetica,sans-Serif" font-size="10.00">netPort</text>
</g>
<!-- GW__TxThr__netPort -->
<g id="node7" class="node"><title>GW__TxThr__netPort</title>
<polygon fill="none" stroke="lightblue" points="171.811,-206.5 117.811,-206.5 117.811,-187.5 171.811,-187.5 171.811,-206.5"/>
<text text-anchor="middle" x="144.811" y="-194.5" font-family="Helvetica,sans-Serif" font-size="10.00">netPort</text>
</g>
<!-- Client__netPort&#45;&gt;GW__TxThr__netPort -->
<g id="edge1" class="edge"><title>Client__netPort&#45;&gt;GW__TxThr__netPort</title>
<path fill="none" stroke="red" d="M227.214,-183.358C213.633,-185.634 196.797,-188.455 181.967,-190.941"/>
<polygon fill="red" stroke="red" points="181.369,-187.492 172.086,-192.597 182.527,-194.396 181.369,-187.492"/>
<text text-anchor="middle" x="200.811" y="-190.6" font-family="Helvetica,sans-Serif" font-size="8.00" fill="red">str</text>
</g>
<!-- Client__sched -->
<g id="node2" class="node"><title>Client__sched</title>
<ellipse fill="none" stroke="lightblue" cx="254.217" cy="-138" rx="30.3115" ry="13.3704"/>
<text text-anchor="middle" x="254.217" y="-135.5" font-family="Helvetica,sans-Serif" font-size="10.00">sched</text>
</g>
<!-- GW__sched -->
<g id="node3" class="node"><title>GW__sched</title>
<ellipse fill="none" stroke="lightblue" cx="46.4056" cy="-110" rx="30.3115" ry="13.3704"/>
<text text-anchor="middle" x="46.4056" y="-107.5" font-family="Helvetica,sans-Serif" font-size="10.00">sched</text>
</g>
<!-- GW__RxThr__serPort -->
<g id="node4" class="node"><title>GW__RxThr__serPort</title>
<polygon fill="none" stroke="lightblue" points="171.811,-69.5 117.811,-69.5 117.811,-50.5 171.811,-50.5 171.811,-69.5"/>
<text text-anchor="middle" x="144.811" y="-57.5" font-family="Helvetica,sans-Serif" font-size="10.00">serPort</text>
</g>
<!-- GW__sched&#45;&gt;GW__RxThr__serPort -->
<g id="edge5" class="edge"><title>GW__sched&#45;&gt;GW__RxThr__serPort</title>
<path fill="none" stroke="lightblue" d="M66.9147,-99.8818C76.7633,-94.7739 89.1244,-88.3629 101.038,-82.1842"/>
<polygon fill="lightblue" stroke="lightblue" points="102.745,-85.2412 110.011,-77.5301 99.5226,-79.0272 102.745,-85.2412"/>
<text text-anchor="middle" x="97.3112" y="-87.6" font-family="Helvetica,sans-Serif" font-size="8.00" fill="lightblue">1</text>
</g>
<!-- GW__TxThr__serPort -->
<g id="node6" class="node"><title>GW__TxThr__serPort</title>
<polygon fill="none" stroke="lightblue" points="171.811,-169.5 117.811,-169.5 117.811,-150.5 171.811,-150.5 171.811,-169.5"/>
<text text-anchor="middle" x="144.811" y="-157.5" font-family="Helvetica,sans-Serif" font-size="10.00">serPort</text>
</g>
<!-- GW__sched&#45;&gt;GW__TxThr__serPort -->
<g id="edge6" class="edge"><title>GW__sched&#45;&gt;GW__TxThr__serPort</title>
<path fill="none" stroke="lightblue" d="M66.9147,-120.118C76.7633,-125.226 89.1244,-131.637 101.038,-137.816"/>
<polygon fill="lightblue" stroke="lightblue" points="99.5226,-140.973 110.011,-142.47 102.745,-134.759 99.5226,-140.973"/>
<text text-anchor="middle" x="97.3112" y="-139.6" font-family="Helvetica,sans-Serif" font-size="8.00" fill="lightblue">2</text>
</g>
<!-- GW__RxThr__netPort -->
<g id="node5" class="node"><title>GW__RxThr__netPort</title>
<polygon fill="none" stroke="lightblue" points="171.811,-106.5 117.811,-106.5 117.811,-87.5 171.811,-87.5 171.811,-106.5"/>
<text text-anchor="middle" x="144.811" y="-94.5" font-family="Helvetica,sans-Serif" font-size="10.00">netPort</text>
</g>
<!-- GW__RxThr__netPort&#45;&gt;Client__netPort -->
<g id="edge2" class="edge"><title>GW__RxThr__netPort&#45;&gt;Client__netPort</title>
<path fill="none" stroke="red" d="M171.996,-98.4291C183.858,-100.425 197.136,-104.769 205.811,-114 220.139,-129.246 203.026,-143.439 215.811,-160 216.729,-161.189 217.742,-162.31 218.829,-163.366"/>
<polygon fill="red" stroke="red" points="216.755,-166.186 226.843,-169.426 220.977,-160.603 216.755,-166.186"/>
<text text-anchor="middle" x="200.811" y="-116.6" font-family="Helvetica,sans-Serif" font-size="8.00" fill="red">str</text>
</g>
<!-- SerDev__serPort -->
<g id="node8" class="node"><title>SerDev__serPort</title>
<polygon fill="none" stroke="lightblue" points="281.217,-79.5 227.217,-79.5 227.217,-60.5 281.217,-60.5 281.217,-79.5"/>
<text text-anchor="middle" x="254.217" y="-67.5" font-family="Helvetica,sans-Serif" font-size="10.00">serPort</text>
</g>
<!-- GW__TxThr__serPort&#45;&gt;SerDev__serPort -->
<g id="edge3" class="edge"><title>GW__TxThr__serPort&#45;&gt;SerDev__serPort</title>
<path fill="none" stroke="red" d="M166.392,-150.322C173.375,-146.753 181.102,-142.479 187.811,-138 196.472,-132.218 198.32,-130.234 205.811,-123 217.444,-111.768 229.583,-98.1547 238.665,-87.5375"/>
<polygon fill="red" stroke="red" points="241.448,-89.6665 245.225,-79.7678 236.1,-85.1506 241.448,-89.6665"/>
<text text-anchor="middle" x="200.811" y="-135.6" font-family="Helvetica,sans-Serif" font-size="8.00" fill="red">str</text>
</g>
<!-- SerDev__serPort&#45;&gt;GW__RxThr__serPort -->
<g id="edge4" class="edge"><title>SerDev__serPort&#45;&gt;GW__RxThr__serPort</title>
<path fill="none" stroke="red" d="M227.214,-67.579C213.763,-66.3267 197.121,-64.7772 182.396,-63.4062"/>
<polygon fill="red" stroke="red" points="182.367,-59.8885 172.086,-62.4463 181.718,-66.8583 182.367,-59.8885"/>
<text text-anchor="middle" x="200.811" y="-68.6" font-family="Helvetica,sans-Serif" font-size="8.00" fill="red">str</text>
</g>
<!-- SerDev__sched -->
<g id="node9" class="node"><title>SerDev__sched</title>
<ellipse fill="none" stroke="lightblue" cx="254.217" cy="-29" rx="30.3115" ry="13.3704"/>
<text text-anchor="middle" x="254.217" y="-26.5" font-family="Helvetica,sans-Serif" font-size="10.00">sched</text>
</g>
</g>
</svg>
