<?xml version="1.0" encoding="UTF-8" standalone="no"?>
<!DOCTYPE svg PUBLIC "-//W3C//DTD SVG 1.1//EN"
 "http://www.w3.org/Graphics/SVG/1.1/DTD/svg11.dtd">
<!-- Generated by graphviz version 2.38.0 (20140413.2041)
 -->
<!-- Title: G Pages: 1 -->
<svg width="940pt" height="499pt"
 viewBox="0.00 0.00 940.00 499.09" xmlns="http://www.w3.org/2000/svg" xmlns:xlink="http://www.w3.org/1999/xlink">
<g id="graph0" class="graph" transform="scale(1 1) rotate(0) translate(4 495.09)">
<title>G</title>
<polygon fill="white" stroke="none" points="-4,4 -4,-495.09 936,-495.09 936,4 -4,4"/>
<g id="clust1" class="cluster"><title>cluster_Apps</title>
<polygon fill="none" stroke="black" points="8,-8 8,-141.74 284,-141.74 284,-8 8,-8"/>
<text text-anchor="middle" x="146" y="-129.74" font-family="Helvetica,sans-Serif" font-size="10.00">Apps</text>
</g>
<g id="clust2" class="cluster"><title>cluster_Vol</title>
<polygon fill="none" stroke="black" points="292,-8 292,-141.74 808,-141.74 808,-8 292,-8"/>
<text text-anchor="middle" x="550" y="-129.74" font-family="Helvetica,sans-Serif" font-size="10.00">Vol</text>
</g>
<!-- INITstr -->
<g id="node1" class="node"><title>INITstr</title>
</g>
<!-- offstr -->
<g id="node2" class="node"><title>offstr</title>
<ellipse fill="none" stroke="black" cx="167" cy="-477.655" rx="27" ry="13.3704"/>
<text text-anchor="middle" x="167" y="-475.155" font-family="Helvetica,sans-Serif" font-size="10.00">offstr</text>
</g>
<!-- standbystr -->
<g id="node3" class="node"><title>standbystr</title>
<ellipse fill="none" stroke="black" cx="256" cy="-477.655" rx="43.6818" ry="13.3704"/>
<text text-anchor="middle" x="256" y="-475.155" font-family="Helvetica,sans-Serif" font-size="10.00">standbystr</text>
</g>
<!-- bootingstr -->
<g id="node4" class="node"><title>bootingstr</title>
<ellipse fill="none" stroke="black" cx="360" cy="-477.655" rx="41.9398" ry="13.3704"/>
<text text-anchor="middle" x="360" y="-475.155" font-family="Helvetica,sans-Serif" font-size="10.00">bootingstr</text>
</g>
<!-- normal_opstr -->
<g id="node5" class="node"><title>normal_opstr</title>
<ellipse fill="none" stroke="black" cx="471" cy="-477.655" rx="51.7379" ry="13.3704"/>
<text text-anchor="middle" x="471" y="-475.155" font-family="Helvetica,sans-Serif" font-size="10.00">normal_opstr</text>
</g>
<!-- shutdownstr -->
<g id="node6" class="node"><title>shutdownstr</title>
<ellipse fill="none" stroke="black" cx="589" cy="-477.655" rx="48.5816" ry="13.3704"/>
<text text-anchor="middle" x="589" y="-475.155" font-family="Helvetica,sans-Serif" font-size="10.00">shutdownstr</text>
</g>
<!-- anystr -->
<g id="node7" class="node"><title>anystr</title>
<ellipse fill="none" stroke="black" cx="687" cy="-477.655" rx="31.2258" ry="13.3704"/>
<text text-anchor="middle" x="687" y="-475.155" font-family="Helvetica,sans-Serif" font-size="10.00">anystr</text>
</g>
<!-- INIT -->
<g id="node8" class="node"><title>INIT</title>
<ellipse fill="none" stroke="black" cx="763" cy="-477.655" rx="27" ry="13.3704"/>
<text text-anchor="middle" x="763" y="-475.155" font-family="Helvetica,sans-Serif" font-size="10.00">INIT</text>
</g>
<!-- off -->
<g id="node9" class="node"><title>off</title>
<ellipse fill="none" stroke="black" cx="799" cy="-405.785" rx="27" ry="13.3704"/>
<text text-anchor="middle" x="799" y="-403.285" font-family="Helvetica,sans-Serif" font-size="10.00">off</text>
</g>
<!-- INIT&#45;&gt;off -->
<g id="edge1" class="edge"><title>INIT&#45;&gt;off</title>
<path fill="none" stroke="black" d="M769.271,-464.485C774.421,-454.489 781.84,-440.09 787.978,-428.176"/>
<polygon fill="black" stroke="black" points="791.09,-429.779 792.559,-419.287 784.867,-426.573 791.09,-429.779"/>
<text text-anchor="middle" x="795.5" y="-439.82" font-family="Helvetica,sans-Serif" font-size="8.00">INITIAL</text>
</g>
<!-- standby -->
<g id="node10" class="node"><title>standby</title>
<ellipse fill="none" stroke="black" cx="799" cy="-333.915" rx="36.125" ry="13.3704"/>
<text text-anchor="middle" x="799" y="-331.415" font-family="Helvetica,sans-Serif" font-size="10.00">standby</text>
</g>
<!-- off&#45;&gt;standby -->
<g id="edge2" class="edge"><title>off&#45;&gt;standby</title>
<path fill="none" stroke="black" d="M799,-392.294C799,-382.775 799,-369.402 799,-357.96"/>
<polygon fill="black" stroke="black" points="802.5,-357.771 799,-347.771 795.5,-357.771 802.5,-357.771"/>
<text text-anchor="middle" x="825" y="-367.95" font-family="Helvetica,sans-Serif" font-size="8.00">PowerApplied</text>
</g>
<!-- booting -->
<g id="node11" class="node"><title>booting</title>
<ellipse fill="none" stroke="black" cx="728" cy="-262.045" rx="33.8824" ry="13.3704"/>
<text text-anchor="middle" x="728" y="-259.545" font-family="Helvetica,sans-Serif" font-size="10.00">booting</text>
</g>
<!-- standby&#45;&gt;booting -->
<g id="edge3" class="edge"><title>standby&#45;&gt;booting</title>
<path fill="none" stroke="black" d="M767.525,-327.222C753.294,-322.927 737.739,-315.447 729,-302.48 725.699,-297.582 724.509,-291.508 724.382,-285.606"/>
<polygon fill="black" stroke="black" points="727.885,-285.677 725.075,-275.461 720.901,-285.199 727.885,-285.677"/>
<text text-anchor="middle" x="753" y="-296.08" font-family="Helvetica,sans-Serif" font-size="8.00">PowerButton</text>
</g>
<!-- standby&#45;&gt;booting -->
<g id="edge4" class="edge"><title>standby&#45;&gt;booting</title>
<path fill="none" stroke="black" d="M794.047,-320.493C790.278,-312.156 784.468,-301.308 777,-293.48 771.361,-287.571 764.342,-282.337 757.394,-277.949"/>
<polygon fill="black" stroke="black" points="759.134,-274.912 748.74,-272.856 755.583,-280.945 759.134,-274.912"/>
<text text-anchor="middle" x="801" y="-296.08" font-family="Helvetica,sans-Serif" font-size="8.00">IgnitionOn</text>
</g>
<!-- normal_op -->
<g id="node12" class="node"><title>normal_op</title>
<ellipse fill="none" stroke="black" cx="702" cy="-190.175" rx="43.6818" ry="13.3704"/>
<text text-anchor="middle" x="702" y="-187.675" font-family="Helvetica,sans-Serif" font-size="10.00">normal_op</text>
</g>
<!-- booting&#45;&gt;normal_op -->
<g id="edge5" class="edge"><title>booting&#45;&gt;normal_op</title>
<path fill="none" stroke="black" d="M723.352,-248.554C719.691,-238.717 714.499,-224.765 710.152,-213.081"/>
<polygon fill="black" stroke="black" points="713.376,-211.71 706.608,-203.558 706.815,-214.151 713.376,-211.71"/>
<text text-anchor="middle" x="748" y="-224.21" font-family="Helvetica,sans-Serif" font-size="8.00">boot_tmr_expired</text>
</g>
<!-- normal_op&#45;&gt;normal_op -->
<g id="edge19" class="edge"><title>normal_op&#45;&gt;normal_op</title>
<path fill="none" stroke="black" d="M740.65,-196.55C753.534,-196.55 763.841,-194.425 763.841,-190.175 763.841,-187.12 758.516,-185.164 750.737,-184.304"/>
<polygon fill="black" stroke="black" points="750.813,-180.804 740.65,-183.8 750.463,-187.795 750.813,-180.804"/>
<text text-anchor="middle" x="797.341" y="-188.275" font-family="Helvetica,sans-Serif" font-size="8.00">clock_tmr_expired</text>
</g>
<!-- Apps_radio -->
<g id="node15" class="node"><title>Apps_radio</title>
<ellipse fill="none" stroke="black" cx="62" cy="-101.305" rx="45.9239" ry="13.3704"/>
<text text-anchor="middle" x="62" y="-98.8051" font-family="Helvetica,sans-Serif" font-size="10.00">Apps_radio</text>
</g>
<!-- normal_op&#45;&gt;Apps_radio -->
<g id="edge8" class="edge"><title>normal_op&#45;&gt;Apps_radio</title>
<path fill="none" stroke="lightgrey" d="M658.08,-188.639C539.723,-186.716 216.374,-178.181 117,-141.74 104.543,-137.172 92.3747,-128.961 82.6636,-121.21"/>
<polygon fill="lightgrey" stroke="lightgrey" points="84.7253,-118.371 74.8168,-114.62 80.2233,-123.731 84.7253,-118.371"/>
</g>
<!-- Vol_on -->
<g id="node21" class="node"><title>Vol_on</title>
<ellipse fill="none" stroke="black" cx="418" cy="-101.305" rx="33.4697" ry="13.3704"/>
<text text-anchor="middle" x="418" y="-98.8051" font-family="Helvetica,sans-Serif" font-size="10.00">Vol_on</text>
</g>
<!-- normal_op&#45;&gt;Vol_on -->
<g id="edge16" class="edge"><title>normal_op&#45;&gt;Vol_on</title>
<path fill="none" stroke="lightgrey" d="M658.808,-187.675C608.741,-184.398 524.929,-174.074 461,-141.74 451.309,-136.838 442.192,-129.125 434.87,-121.815"/>
<polygon fill="lightgrey" stroke="lightgrey" points="437.091,-119.07 427.685,-114.194 431.998,-123.871 437.091,-119.07"/>
</g>
<!-- shutdown -->
<g id="node25" class="node"><title>shutdown</title>
<ellipse fill="none" stroke="black" cx="859" cy="-101.305" rx="41.0244" ry="13.3704"/>
<text text-anchor="middle" x="859" y="-98.8051" font-family="Helvetica,sans-Serif" font-size="10.00">shutdown</text>
</g>
<!-- normal_op&#45;&gt;shutdown -->
<g id="edge17" class="edge"><title>normal_op&#45;&gt;shutdown</title>
<path fill="none" stroke="black" d="M709.507,-176.601C715.672,-167.499 725.281,-155.776 737,-149.74 766.802,-134.392 781.152,-154.862 812,-141.74 822.733,-137.175 832.883,-129.3 840.985,-121.782"/>
<polygon fill="black" stroke="black" points="843.688,-124.033 848.351,-114.519 838.773,-119.048 843.688,-124.033"/>
<text text-anchor="middle" x="761" y="-152.34" font-family="Helvetica,sans-Serif" font-size="8.00">PowerButton</text>
</g>
<!-- normal_op&#45;&gt;shutdown -->
<g id="edge18" class="edge"><title>normal_op&#45;&gt;shutdown</title>
<path fill="none" stroke="black" d="M731.432,-180.069C747.589,-174.655 767.781,-167.2 785,-158.74 797.727,-152.487 800.542,-150.095 812,-141.74 820.815,-135.313 830.1,-127.716 838.067,-120.915"/>
<polygon fill="black" stroke="black" points="840.554,-123.391 845.819,-114.197 835.969,-118.101 840.554,-123.391"/>
<text text-anchor="middle" x="819.5" y="-152.34" font-family="Helvetica,sans-Serif" font-size="8.00">IgnitionOff</text>
</g>
<!-- Apps_radiostr -->
<g id="node13" class="node"><title>Apps_radiostr</title>
<ellipse fill="none" stroke="black" cx="241" cy="-101.305" rx="34.7971" ry="13.3704"/>
<text text-anchor="middle" x="241" y="-98.8051" font-family="Helvetica,sans-Serif" font-size="10.00">radiostr</text>
</g>
<!-- Apps_navistr -->
<g id="node14" class="node"><title>Apps_navistr</title>
<ellipse fill="none" stroke="black" cx="157" cy="-101.305" rx="31.2258" ry="13.3704"/>
<text text-anchor="middle" x="157" y="-98.8051" font-family="Helvetica,sans-Serif" font-size="10.00">navistr</text>
</g>
<!-- Apps_navi -->
<g id="node16" class="node"><title>Apps_navi</title>
<ellipse fill="none" stroke="black" cx="84" cy="-29.435" rx="43.2674" ry="13.3704"/>
<text text-anchor="middle" x="84" y="-26.935" font-family="Helvetica,sans-Serif" font-size="10.00">Apps_navi</text>
</g>
<!-- Apps_radio&#45;&gt;Apps_navi -->
<g id="edge6" class="edge"><title>Apps_radio&#45;&gt;Apps_navi</title>
<path fill="none" stroke="black" d="M52.1711,-88.02C47.1147,-80.1341 42.8084,-69.7454 47,-60.8701 49.2511,-56.1036 52.6551,-51.8319 56.5034,-48.1021"/>
<polygon fill="black" stroke="black" points="58.8401,-50.7106 64.2647,-41.6098 54.3488,-45.3414 58.8401,-50.7106"/>
<text text-anchor="middle" x="67" y="-63.4701" font-family="Helvetica,sans-Serif" font-size="8.00">NaviButton</text>
</g>
<!-- Apps_navi&#45;&gt;Apps_radio -->
<g id="edge7" class="edge"><title>Apps_navi&#45;&gt;Apps_radio</title>
<path fill="none" stroke="black" d="M87.5078,-42.8654C89.1342,-50.8093 90.1015,-61.2079 87,-69.8701 85.702,-73.4953 83.7653,-76.9983 81.5338,-80.2574"/>
<polygon fill="black" stroke="black" points="78.6732,-78.2309 75.1743,-88.2314 84.1459,-82.5956 78.6732,-78.2309"/>
<text text-anchor="middle" x="110" y="-63.4701" font-family="Helvetica,sans-Serif" font-size="8.00">RadioButton</text>
</g>
<!-- Vol_onstr -->
<g id="node17" class="node"><title>Vol_onstr</title>
<ellipse fill="none" stroke="black" cx="773" cy="-101.305" rx="27" ry="13.3704"/>
<text text-anchor="middle" x="773" y="-98.8051" font-family="Helvetica,sans-Serif" font-size="10.00">onstr</text>
</g>
<!-- Vol_incvolstr -->
<g id="node18" class="node"><title>Vol_incvolstr</title>
<ellipse fill="none" stroke="black" cx="691" cy="-101.305" rx="36.5405" ry="13.3704"/>
<text text-anchor="middle" x="691" y="-98.8051" font-family="Helvetica,sans-Serif" font-size="10.00">incvolstr</text>
</g>
<!-- Vol_decvolstr -->
<g id="node19" class="node"><title>Vol_decvolstr</title>
<ellipse fill="none" stroke="black" cx="597" cy="-101.305" rx="38.7821" ry="13.3704"/>
<text text-anchor="middle" x="597" y="-98.8051" font-family="Helvetica,sans-Serif" font-size="10.00">decvolstr</text>
</g>
<!-- Vol_mutestr -->
<g id="node20" class="node"><title>Vol_mutestr</title>
<ellipse fill="none" stroke="black" cx="505" cy="-101.305" rx="35.2113" ry="13.3704"/>
<text text-anchor="middle" x="505" y="-98.8051" font-family="Helvetica,sans-Serif" font-size="10.00">mutestr</text>
</g>
<!-- Vol_mute -->
<g id="node22" class="node"><title>Vol_mute</title>
<ellipse fill="none" stroke="black" cx="536" cy="-29.435" rx="41.0244" ry="13.3704"/>
<text text-anchor="middle" x="536" y="-26.935" font-family="Helvetica,sans-Serif" font-size="10.00">Vol_mute</text>
</g>
<!-- Vol_on&#45;&gt;Vol_mute -->
<g id="edge9" class="edge"><title>Vol_on&#45;&gt;Vol_mute</title>
<path fill="none" stroke="black" d="M432.473,-88.8789C443.303,-80.5925 458.656,-69.3912 473,-60.8701 482.576,-55.1814 493.375,-49.6632 503.292,-44.9232"/>
<polygon fill="black" stroke="black" points="504.884,-48.0425 512.461,-40.637 501.919,-41.7012 504.884,-48.0425"/>
<text text-anchor="middle" x="493.5" y="-63.4701" font-family="Helvetica,sans-Serif" font-size="8.00">MuteButton</text>
</g>
<!-- Vol_incvol -->
<g id="node23" class="node"><title>Vol_incvol</title>
<ellipse fill="none" stroke="black" cx="366" cy="-29.435" rx="42.3529" ry="13.3704"/>
<text text-anchor="middle" x="366" y="-26.935" font-family="Helvetica,sans-Serif" font-size="10.00">Vol_incvol</text>
</g>
<!-- Vol_on&#45;&gt;Vol_incvol -->
<g id="edge10" class="edge"><title>Vol_on&#45;&gt;Vol_incvol</title>
<path fill="none" stroke="black" d="M384.654,-99.6932C362.164,-97.3219 333.958,-90.1179 319,-69.8701 311.99,-60.3806 319.845,-51.7203 331.013,-44.9481"/>
<polygon fill="black" stroke="black" points="332.83,-47.9463 340.009,-40.1549 329.538,-41.7685 332.83,-47.9463"/>
<text text-anchor="middle" x="343.5" y="-63.4701" font-family="Helvetica,sans-Serif" font-size="8.00">VolKnobRight</text>
</g>
<!-- Vol_decvol -->
<g id="node24" class="node"><title>Vol_decvol</title>
<ellipse fill="none" stroke="black" cx="706" cy="-29.435" rx="44.5955" ry="13.3704"/>
<text text-anchor="middle" x="706" y="-26.935" font-family="Helvetica,sans-Serif" font-size="10.00">Vol_decvol</text>
</g>
<!-- Vol_on&#45;&gt;Vol_decvol -->
<g id="edge11" class="edge"><title>Vol_on&#45;&gt;Vol_decvol</title>
<path fill="none" stroke="black" d="M442.834,-92.3456C448.741,-90.6695 455.055,-89.053 461,-87.8701 531.617,-73.8181 552.707,-89.4309 622,-69.8701 641.26,-64.4333 661.606,-54.9878 677.45,-46.704"/>
<polygon fill="black" stroke="black" points="679.531,-49.559 686.683,-41.7424 676.218,-43.3928 679.531,-49.559"/>
<text text-anchor="middle" x="671" y="-63.4701" font-family="Helvetica,sans-Serif" font-size="8.00">VolKnobLeft</text>
</g>
<!-- Vol_mute&#45;&gt;Vol_on -->
<g id="edge14" class="edge"><title>Vol_mute&#45;&gt;Vol_on</title>
<path fill="none" stroke="black" d="M531.78,-43.1134C528.286,-51.7873 522.503,-62.9307 514,-69.8701 511.493,-71.9163 479.764,-81.7788 453.46,-89.7303"/>
<polygon fill="black" stroke="black" points="452.282,-86.4295 443.716,-92.664 454.301,-93.1323 452.282,-86.4295"/>
<text text-anchor="middle" x="542.5" y="-63.4701" font-family="Helvetica,sans-Serif" font-size="8.00">MuteButton</text>
</g>
<!-- Vol_mute&#45;&gt;Vol_on -->
<g id="edge15" class="edge"><title>Vol_mute&#45;&gt;Vol_on</title>
<path fill="none" stroke="black" d="M554.172,-41.6503C564.858,-49.6347 574.866,-60.5554 567,-69.8701 551.584,-88.1243 484.291,-82.5428 461,-87.8701 458.391,-88.4668 455.706,-89.1279 453.013,-89.8255"/>
<polygon fill="black" stroke="black" points="452.07,-86.4546 443.342,-92.4603 453.91,-93.2085 452.07,-86.4546"/>
<text text-anchor="middle" x="593.5" y="-63.4701" font-family="Helvetica,sans-Serif" font-size="8.00">VolKnobRight</text>
</g>
<!-- Vol_incvol&#45;&gt;Vol_on -->
<g id="edge12" class="edge"><title>Vol_incvol&#45;&gt;Vol_on</title>
<path fill="none" stroke="black" d="M373.17,-42.8546C377.923,-50.7943 384.467,-61.1922 391,-69.8701 393.8,-73.5891 396.948,-77.4104 400.079,-81.0349"/>
<polygon fill="black" stroke="black" points="397.499,-83.4006 406.764,-88.5387 402.725,-78.744 397.499,-83.4006"/>
<text text-anchor="middle" x="420.5" y="-63.4701" font-family="Helvetica,sans-Serif" font-size="8.00">VolChangeDone</text>
</g>
<!-- Vol_decvol&#45;&gt;Vol_on -->
<g id="edge13" class="edge"><title>Vol_decvol&#45;&gt;Vol_on</title>
<path fill="none" stroke="black" d="M707.078,-43.0249C707.085,-51.8898 705.437,-63.305 698,-69.8701 678.202,-87.3478 486.989,-83.177 461,-87.8701 458.297,-88.3582 455.521,-88.9485 452.743,-89.6035"/>
<polygon fill="black" stroke="black" points="451.6,-86.2844 442.805,-92.1921 453.365,-93.0584 451.6,-86.2844"/>
<text text-anchor="middle" x="733.5" y="-63.4701" font-family="Helvetica,sans-Serif" font-size="8.00">VolChangeDone</text>
</g>
<!-- shutdown&#45;&gt;standby -->
<g id="edge20" class="edge"><title>shutdown&#45;&gt;standby</title>
<path fill="none" stroke="black" d="M858.82,-115.114C857.92,-147.817 852.703,-236.469 823,-302.48 821.339,-306.172 819.133,-309.809 816.731,-313.213"/>
<polygon fill="black" stroke="black" points="813.967,-311.066 810.551,-321.095 819.475,-315.385 813.967,-311.066"/>
<text text-anchor="middle" x="889.5" y="-224.21" font-family="Helvetica,sans-Serif" font-size="8.00">shutdown_tmr_expired</text>
</g>
<!-- any -->
<g id="node26" class="node"><title>any</title>
<ellipse fill="none" stroke="black" cx="835" cy="-477.655" rx="27" ry="13.3704"/>
<text text-anchor="middle" x="835" y="-475.155" font-family="Helvetica,sans-Serif" font-size="10.00">any</text>
</g>
<!-- any&#45;&gt;off -->
<g id="edge21" class="edge"><title>any&#45;&gt;off</title>
<path fill="none" stroke="black" d="M828.729,-464.485C823.579,-454.489 816.16,-440.09 810.022,-428.176"/>
<polygon fill="black" stroke="black" points="813.133,-426.573 805.441,-419.287 806.91,-429.779 813.133,-426.573"/>
<text text-anchor="middle" x="848" y="-439.82" font-family="Helvetica,sans-Serif" font-size="8.00">PowerRemoved</text>
</g>
</g>
</svg>
