<?xml version="1.0" encoding="UTF-8" standalone="no"?>
<!DOCTYPE svg PUBLIC "-//W3C//DTD SVG 1.1//EN"
 "http://www.w3.org/Graphics/SVG/1.1/DTD/svg11.dtd">
<!-- Generated by graphviz version 2.38.0 (20140413.2041)
 -->
<!-- Title: G Pages: 1 -->
<svg width="208pt" height="160pt"
 viewBox="0.00 0.00 207.62 160.00" xmlns="http://www.w3.org/2000/svg" xmlns:xlink="http://www.w3.org/1999/xlink">
<g id="graph0" class="graph" transform="scale(1 1) rotate(0) translate(4 156)">
<title>G</title>
<polygon fill="white" stroke="none" points="-4,4 -4,-156 203.622,-156 203.622,4 -4,4"/>
<g id="clust1" class="cluster"><title>cluster_Producer</title>
<polygon fill="none" stroke="black" points="8,-8 8,-144 84.8112,-144 84.8112,-8 8,-8"/>
<text text-anchor="start" x="24.4056" y="-133" font-family="Helvetica,sans-Serif" font-weight="bold" font-size="10.00">Producer</text>
</g>
<g id="clust2" class="cluster"><title>cluster_Consumer</title>
<polygon fill="none" stroke="black" points="114.811,-25 114.811,-124 191.622,-124 191.622,-25 114.811,-25"/>
<text text-anchor="start" x="128.717" y="-113" font-family="Helvetica,sans-Serif" font-weight="bold" font-size="10.00">Consumer</text>
</g>
<!-- Producer__netPort1 -->
<g id="node1" class="node"><title>Producer__netPort1</title>
<polygon fill="none" stroke="lightblue" points="73.4056,-116.5 19.4056,-116.5 19.4056,-97.5 73.4056,-97.5 73.4056,-116.5"/>
<text text-anchor="middle" x="46.4056" y="-104.5" font-family="Helvetica,sans-Serif" font-size="10.00">netPort1</text>
</g>
<!-- Consumer__netPort -->
<g id="node4" class="node"><title>Consumer__netPort</title>
<polygon fill="none" stroke="lightblue" points="180.217,-96.5 126.217,-96.5 126.217,-77.5 180.217,-77.5 180.217,-96.5"/>
<text text-anchor="middle" x="153.217" y="-84.5" font-family="Helvetica,sans-Serif" font-size="10.00">netPort</text>
</g>
<!-- Producer__netPort1&#45;&gt;Consumer__netPort -->
<g id="edge1" class="edge"><title>Producer__netPort1&#45;&gt;Consumer__netPort</title>
<path fill="none" stroke="red" d="M73.5835,-102.005C86.3393,-99.5707 101.888,-96.6037 115.782,-93.9526"/>
<polygon fill="red" stroke="red" points="116.843,-97.3133 126.009,-92.0009 115.53,-90.4374 116.843,-97.3133"/>
<text text-anchor="middle" x="99.8112" y="-100.6" font-family="Helvetica,sans-Serif" font-size="8.00" fill="red">str</text>
</g>
<!-- Producer__netPort2 -->
<g id="node2" class="node"><title>Producer__netPort2</title>
<polygon fill="none" stroke="lightblue" points="73.4056,-79.5 19.4056,-79.5 19.4056,-60.5 73.4056,-60.5 73.4056,-79.5"/>
<text text-anchor="middle" x="46.4056" y="-67.5" font-family="Helvetica,sans-Serif" font-size="10.00">netPort2</text>
</g>
<!-- Producer__netPort2&#45;&gt;Consumer__netPort -->
<g id="edge2" class="edge"><title>Producer__netPort2&#45;&gt;Consumer__netPort</title>
<path fill="none" stroke="red" d="M73.5402,-70.7281C83.3928,-71.2884 94.667,-72.2732 104.811,-74 108.476,-74.6239 112.266,-75.4118 116.033,-76.29"/>
<polygon fill="red" stroke="red" points="115.295,-79.7133 125.848,-78.7745 117.012,-72.9274 115.295,-79.7133"/>
<text text-anchor="middle" x="99.8112" y="-76.6" font-family="Helvetica,sans-Serif" font-size="8.00" fill="red">str</text>
</g>
<!-- Producer__sched -->
<g id="node3" class="node"><title>Producer__sched</title>
<ellipse fill="none" stroke="lightblue" cx="46.4056" cy="-29" rx="30.3115" ry="13.3704"/>
<text text-anchor="middle" x="46.4056" y="-26.5" font-family="Helvetica,sans-Serif" font-size="10.00">sched</text>
</g>
<!-- Consumer__sched -->
<g id="node5" class="node"><title>Consumer__sched</title>
<ellipse fill="none" stroke="lightblue" cx="153.217" cy="-46" rx="30.3115" ry="13.3704"/>
<text text-anchor="middle" x="153.217" y="-43.5" font-family="Helvetica,sans-Serif" font-size="10.00">sched</text>
</g>
</g>
</svg>
