<?xml version="1.0" encoding="UTF-8" standalone="no"?>
<!DOCTYPE svg PUBLIC "-//W3C//DTD SVG 1.1//EN"
 "http://www.w3.org/Graphics/SVG/1.1/DTD/svg11.dtd">
<!-- Generated by graphviz version 2.38.0 (20140413.2041)
 -->
<!-- Title: G Pages: 1 -->
<svg width="194pt" height="116pt"
 viewBox="0.00 0.00 194.00 116.00" xmlns="http://www.w3.org/2000/svg" xmlns:xlink="http://www.w3.org/1999/xlink">
<g id="graph0" class="graph" transform="scale(1 1) rotate(0) translate(4 112)">
<title>G</title>
<polygon fill="white" stroke="none" points="-4,4 -4,-112 190,-112 190,4 -4,4"/>
<g id="clust1" class="cluster"><title>cluster_Producer</title>
<polygon fill="none" stroke="black" points="8,-8 8,-100 78,-100 78,-8 8,-8"/>
<text text-anchor="start" x="21" y="-89" font-family="Helvetica,sans-Serif" font-weight="bold" font-size="10.00">Producer</text>
</g>
<g id="clust3" class="cluster"><title>cluster_Consumer</title>
<polygon fill="none" stroke="black" points="108,-9 108,-64 178,-64 178,-9 108,-9"/>
<text text-anchor="start" x="118.5" y="-53" font-family="Helvetica,sans-Serif" font-weight="bold" font-size="10.00">Consumer</text>
</g>
<!-- Producer__netPort1 -->
<g id="node1" class="node"><title>Producer__netPort1</title>
<polygon fill="none" stroke="lightblue" points="70,-72.5 16,-72.5 16,-53.5 70,-53.5 70,-72.5"/>
<text text-anchor="middle" x="43" y="-60.5" font-family="Helvetica,sans-Serif" font-size="10.00">netPort1</text>
</g>
<!-- Consumer__netPort -->
<g id="node3" class="node"><title>Consumer__netPort</title>
<polygon fill="none" stroke="lightblue" points="170,-36.5 116,-36.5 116,-17.5 170,-17.5 170,-36.5"/>
<text text-anchor="middle" x="143" y="-24.5" font-family="Helvetica,sans-Serif" font-size="10.00">netPort</text>
</g>
<!-- Producer__netPort1&#45;&gt;Consumer__netPort -->
<g id="edge1" class="edge"><title>Producer__netPort1&#45;&gt;Consumer__netPort</title>
<path fill="none" stroke="red" d="M70.0049,-53.4472C81.0801,-49.3787 94.1823,-44.5657 106.153,-40.1682"/>
<polygon fill="red" stroke="red" points="107.694,-43.331 115.874,-36.5975 105.28,-36.7604 107.694,-43.331"/>
<text text-anchor="middle" x="93" y="-49.6" font-family="Helvetica,sans-Serif" font-size="8.00" fill="red">str</text>
</g>
<!-- Producer__netPort2 -->
<g id="node2" class="node"><title>Producer__netPort2</title>
<polygon fill="none" stroke="lightblue" points="70,-35.5 16,-35.5 16,-16.5 70,-16.5 70,-35.5"/>
<text text-anchor="middle" x="43" y="-23.5" font-family="Helvetica,sans-Serif" font-size="10.00">netPort2</text>
</g>
<!-- Producer__netPort2&#45;&gt;Consumer__netPort -->
<g id="edge2" class="edge"><title>Producer__netPort2&#45;&gt;Consumer__netPort</title>
<path fill="none" stroke="red" d="M70.0049,-26.2654C80.9694,-26.3772 93.9204,-26.5094 105.794,-26.6305"/>
<polygon fill="red" stroke="red" points="105.838,-30.1311 115.874,-26.7334 105.91,-23.1315 105.838,-30.1311"/>
<text text-anchor="middle" x="93" y="-29.6" font-family="Helvetica,sans-Serif" font-size="8.00" fill="red">str</text>
</g>
</g>
</svg>
