<?xml version="1.0" encoding="UTF-8" standalone="no"?>
<!DOCTYPE svg PUBLIC "-//W3C//DTD SVG 1.1//EN"
 "http://www.w3.org/Graphics/SVG/1.1/DTD/svg11.dtd">
<!-- Generated by graphviz version 2.38.0 (20140413.2041)
 -->
<!-- Title: G Pages: 1 -->
<svg width="208pt" height="123pt"
 viewBox="0.00 0.00 207.62 123.00" xmlns="http://www.w3.org/2000/svg" xmlns:xlink="http://www.w3.org/1999/xlink">
<g id="graph0" class="graph" transform="scale(1 1) rotate(0) translate(4 119)">
<title>G</title>
<polygon fill="white" stroke="none" points="-4,4 -4,-119 203.622,-119 203.622,4 -4,4"/>
<g id="clust2" class="cluster"><title>cluster_Joe</title>
<polygon fill="none" stroke="black" points="114.811,-8 114.811,-107 191.622,-107 191.622,-8 114.811,-8"/>
<text text-anchor="start" x="144.217" y="-96" font-family="Helvetica,sans-Serif" font-weight="bold" font-size="10.00">Joe</text>
</g>
<g id="clust1" class="cluster"><title>cluster_Bob</title>
<polygon fill="none" stroke="black" points="8,-8 8,-107 84.8112,-107 84.8112,-8 8,-8"/>
<text text-anchor="start" x="36.9056" y="-96" font-family="Helvetica,sans-Serif" font-weight="bold" font-size="10.00">Bob</text>
</g>
<!-- Bob__head -->
<g id="node1" class="node"><title>Bob__head</title>
<polygon fill="none" stroke="lightblue" points="73.4056,-79.5 19.4056,-79.5 19.4056,-60.5 73.4056,-60.5 73.4056,-79.5"/>
<text text-anchor="middle" x="46.4056" y="-67.5" font-family="Helvetica,sans-Serif" font-size="10.00">head</text>
</g>
<!-- Joe__head -->
<g id="node3" class="node"><title>Joe__head</title>
<polygon fill="none" stroke="lightblue" points="180.217,-79.5 126.217,-79.5 126.217,-60.5 180.217,-60.5 180.217,-79.5"/>
<text text-anchor="middle" x="153.217" y="-67.5" font-family="Helvetica,sans-Serif" font-size="10.00">head</text>
</g>
<!-- Bob__head&#45;&gt;Joe__head -->
<g id="edge1" class="edge"><title>Bob__head&#45;&gt;Joe__head</title>
<path fill="none" stroke="red" stroke-width="3" d="M73.5835,-70C89.5907,-70 109.997,-70 126.009,-70"/>
<text text-anchor="middle" x="99.8112" y="-72.6" font-family="Helvetica,sans-Serif" font-size="8.00" fill="red">str</text>
</g>
<!-- Bob__sched -->
<g id="node2" class="node"><title>Bob__sched</title>
<ellipse fill="none" stroke="lightblue" cx="46.4056" cy="-29" rx="30.3115" ry="13.3704"/>
<text text-anchor="middle" x="46.4056" y="-26.5" font-family="Helvetica,sans-Serif" font-size="10.00">sched</text>
</g>
<!-- Joe__sched -->
<g id="node4" class="node"><title>Joe__sched</title>
<ellipse fill="none" stroke="lightblue" cx="153.217" cy="-29" rx="30.3115" ry="13.3704"/>
<text text-anchor="middle" x="153.217" y="-26.5" font-family="Helvetica,sans-Serif" font-size="10.00">sched</text>
</g>
</g>
</svg>
