<?xml version="1.0" encoding="UTF-8" standalone="no"?>
<!DOCTYPE svg PUBLIC "-//W3C//DTD SVG 1.1//EN"
 "http://www.w3.org/Graphics/SVG/1.1/DTD/svg11.dtd">
<!-- Generated by graphviz version 2.38.0 (20140413.2041)
 -->
<!-- Title: G Pages: 1 -->
<svg width="184pt" height="116pt"
 viewBox="0.00 0.00 184.00 116.00" xmlns="http://www.w3.org/2000/svg" xmlns:xlink="http://www.w3.org/1999/xlink">
<g id="graph0" class="graph" transform="scale(1 1) rotate(0) translate(4 112)">
<title>G</title>
<polygon fill="white" stroke="none" points="-4,4 -4,-112 180,-112 180,4 -4,4"/>
<g id="clust1" class="cluster"><title>cluster_Bob</title>
<polygon fill="none" stroke="black" points="8,-8 8,-100 78,-100 78,-8 8,-8"/>
<text text-anchor="start" x="33.5" y="-89" font-family="Helvetica,sans-Serif" font-weight="bold" font-size="10.00">Bob</text>
</g>
<g id="clust2" class="cluster"><title>cluster_Joe</title>
<polygon fill="none" stroke="black" points="98,-8 98,-100 168,-100 168,-8 98,-8"/>
<text text-anchor="start" x="124" y="-89" font-family="Helvetica,sans-Serif" font-weight="bold" font-size="10.00">Joe</text>
</g>
<!-- Bob__ears -->
<g id="node1" class="node"><title>Bob__ears</title>
<polygon fill="none" stroke="lightblue" points="70,-72.5 16,-72.5 16,-53.5 70,-53.5 70,-72.5"/>
<text text-anchor="middle" x="43" y="-60.5" font-family="Helvetica,sans-Serif" font-size="10.00">ears</text>
</g>
<!-- Bob__mouth -->
<g id="node2" class="node"><title>Bob__mouth</title>
<polygon fill="none" stroke="lightblue" points="70,-35.5 16,-35.5 16,-16.5 70,-16.5 70,-35.5"/>
<text text-anchor="middle" x="43" y="-23.5" font-family="Helvetica,sans-Serif" font-size="10.00">mouth</text>
</g>
<!-- Joe__ears -->
<g id="node3" class="node"><title>Joe__ears</title>
<polygon fill="none" stroke="lightblue" points="160,-35.5 106,-35.5 106,-16.5 160,-16.5 160,-35.5"/>
<text text-anchor="middle" x="133" y="-23.5" font-family="Helvetica,sans-Serif" font-size="10.00">ears</text>
</g>
<!-- Bob__mouth&#45;&gt;Joe__ears -->
<g id="edge1" class="edge"><title>Bob__mouth&#45;&gt;Joe__ears</title>
<path fill="none" stroke="red" d="M70.4029,-26C78.3932,-26 87.3106,-26 95.8241,-26"/>
<polygon fill="red" stroke="red" points="95.919,-29.5001 105.919,-26 95.919,-22.5001 95.919,-29.5001"/>
</g>
<!-- Joe__mouth -->
<g id="node4" class="node"><title>Joe__mouth</title>
<polygon fill="none" stroke="lightblue" points="160,-72.5 106,-72.5 106,-53.5 160,-53.5 160,-72.5"/>
<text text-anchor="middle" x="133" y="-60.5" font-family="Helvetica,sans-Serif" font-size="10.00">mouth</text>
</g>
<!-- Joe__mouth&#45;&gt;Bob__ears -->
<g id="edge2" class="edge"><title>Joe__mouth&#45;&gt;Bob__ears</title>
<path fill="none" stroke="red" d="M105.919,-63C97.9538,-63 89.0438,-63 80.5196,-63"/>
<polygon fill="red" stroke="red" points="80.4029,-59.5001 70.4029,-63 80.4029,-66.5001 80.4029,-59.5001"/>
</g>
</g>
</svg>
