<?xml version="1.0" encoding="UTF-8" standalone="no"?>
<!DOCTYPE svg PUBLIC "-//W3C//DTD SVG 1.1//EN"
 "http://www.w3.org/Graphics/SVG/1.1/DTD/svg11.dtd">
<!-- Generated by graphviz version 2.38.0 (20140413.2041)
 -->
<!-- Title: G Pages: 1 -->
<svg width="792pt" height="499pt"
 viewBox="0.00 0.00 792.00 499.09" xmlns="http://www.w3.org/2000/svg" xmlns:xlink="http://www.w3.org/1999/xlink">
<g id="graph0" class="graph" transform="scale(1 1) rotate(0) translate(4 495.09)">
<title>G</title>
<polygon fill="white" stroke="none" points="-4,4 -4,-495.09 788,-495.09 788,4 -4,4"/>
<g id="clust1" class="cluster"><title>cluster_Apps</title>
<polygon fill="none" stroke="black" points="111,-8 111,-141.74 252,-141.74 252,-8 111,-8"/>
<text text-anchor="middle" x="181.5" y="-129.74" font-family="Helvetica,sans-Serif" font-size="10.00">Apps</text>
</g>
<g id="clust2" class="cluster"><title>cluster_Vol</title>
<polygon fill="none" stroke="black" points="260,-8 260,-141.74 776,-141.74 776,-8 260,-8"/>
<text text-anchor="middle" x="518" y="-129.74" font-family="Helvetica,sans-Serif" font-size="10.00">Vol</text>
</g>
<!-- INIT -->
<g id="node1" class="node"><title>INIT</title>
</g>
<!-- Off -->
<g id="node5" class="node"><title>Off</title>
<ellipse fill="none" stroke="black" cx="69" cy="-405.785" rx="27" ry="13.3704"/>
<text text-anchor="middle" x="69" y="-403.285" font-family="Helvetica,sans-Serif" font-size="10.00">Off</text>
</g>
<!-- INIT&#45;&gt;Off -->
<g id="edge1" class="edge"><title>INIT&#45;&gt;Off</title>
<path fill="none" stroke="black" d="M34.3158,-464.485C40.3986,-454.366 49.1944,-439.733 56.4061,-427.736"/>
<polygon fill="black" stroke="black" points="59.6157,-429.19 61.768,-418.816 53.6162,-425.584 59.6157,-429.19"/>
<text text-anchor="middle" x="63.5" y="-439.82" font-family="Helvetica,sans-Serif" font-size="8.00">INITIAL</text>
</g>
<!-- NormalOp -->
<g id="node2" class="node"><title>NormalOp</title>
<ellipse fill="none" stroke="black" cx="141" cy="-190.175" rx="42.3529" ry="13.3704"/>
<text text-anchor="middle" x="141" y="-187.675" font-family="Helvetica,sans-Serif" font-size="10.00">NormalOp</text>
</g>
<!-- NormalOp&#45;&gt;NormalOp -->
<g id="edge15" class="edge"><title>NormalOp&#45;&gt;NormalOp</title>
<path fill="none" stroke="black" d="M178.471,-196.55C191.197,-196.583 201.426,-194.458 201.426,-190.175 201.426,-187.164 196.369,-185.219 188.943,-184.341"/>
<polygon fill="black" stroke="black" points="188.638,-180.821 178.471,-183.801 188.277,-187.812 188.638,-180.821"/>
<text text-anchor="middle" x="233.426" y="-188.275" font-family="Helvetica,sans-Serif" font-size="8.00">clockTmr_Expired</text>
</g>
<!-- Shutdown -->
<g id="node6" class="node"><title>Shutdown</title>
<ellipse fill="none" stroke="black" cx="61" cy="-101.305" rx="41.9398" ry="13.3704"/>
<text text-anchor="middle" x="61" y="-98.8051" font-family="Helvetica,sans-Serif" font-size="10.00">Shutdown</text>
</g>
<!-- NormalOp&#45;&gt;Shutdown -->
<g id="edge13" class="edge"><title>NormalOp&#45;&gt;Shutdown</title>
<path fill="none" stroke="black" d="M106.909,-182.123C93.452,-177.632 79.068,-170.376 70,-158.74 62.6816,-149.349 60.2467,-136.362 59.725,-125.213"/>
<polygon fill="black" stroke="black" points="63.2251,-124.881 59.7311,-114.879 56.2251,-124.877 63.2251,-124.881"/>
<text text-anchor="middle" x="94" y="-152.34" font-family="Helvetica,sans-Serif" font-size="8.00">PowerButton</text>
</g>
<!-- NormalOp&#45;&gt;Shutdown -->
<g id="edge14" class="edge"><title>NormalOp&#45;&gt;Shutdown</title>
<path fill="none" stroke="black" d="M135.341,-176.575C131.268,-168.366 125.228,-157.736 118,-149.74 113.946,-145.256 111.743,-145.488 107,-141.74 98.7571,-135.226 89.9444,-127.793 82.2611,-121.149"/>
<polygon fill="black" stroke="black" points="84.2834,-118.268 74.4477,-114.33 79.6806,-123.542 84.2834,-118.268"/>
<text text-anchor="middle" x="143.5" y="-152.34" font-family="Helvetica,sans-Serif" font-size="8.00">IgnitionOff</text>
</g>
<!-- Apps_Radio -->
<g id="node8" class="node"><title>Apps_Radio</title>
<ellipse fill="none" stroke="black" cx="192" cy="-101.305" rx="28.9828" ry="13.3704"/>
<text text-anchor="middle" x="192" y="-98.8051" font-family="Helvetica,sans-Serif" font-size="10.00">Radio</text>
</g>
<!-- NormalOp&#45;&gt;Apps_Radio -->
<g id="edge4" class="edge"><title>NormalOp&#45;&gt;Apps_Radio</title>
<path fill="none" stroke="lightgrey" d="M159.377,-177.753C166.144,-172.697 173.296,-166.197 178,-158.74 184.383,-148.623 187.856,-135.78 189.746,-124.902"/>
<polygon fill="lightgrey" stroke="lightgrey" points="193.232,-125.243 191.157,-114.853 186.3,-124.27 193.232,-125.243"/>
</g>
<!-- Vol_On -->
<g id="node10" class="node"><title>Vol_On</title>
<ellipse fill="none" stroke="black" cx="474" cy="-101.305" rx="27" ry="13.3704"/>
<text text-anchor="middle" x="474" y="-98.8051" font-family="Helvetica,sans-Serif" font-size="10.00">On</text>
</g>
<!-- NormalOp&#45;&gt;Vol_On -->
<g id="edge12" class="edge"><title>NormalOp&#45;&gt;Vol_On</title>
<path fill="none" stroke="lightgrey" d="M172.328,-181.003C235.209,-164.599 376.275,-127.799 440.73,-110.984"/>
<polygon fill="lightgrey" stroke="lightgrey" points="441.963,-114.28 450.756,-108.369 440.196,-107.507 441.963,-114.28"/>
</g>
<!-- Booting -->
<g id="node3" class="node"><title>Booting</title>
<ellipse fill="none" stroke="black" cx="140" cy="-262.045" rx="35.2113" ry="13.3704"/>
<text text-anchor="middle" x="140" y="-259.545" font-family="Helvetica,sans-Serif" font-size="10.00">Booting</text>
</g>
<!-- Booting&#45;&gt;NormalOp -->
<g id="edge16" class="edge"><title>Booting&#45;&gt;NormalOp</title>
<path fill="none" stroke="black" d="M140.179,-248.554C140.315,-239.035 140.506,-225.662 140.67,-214.22"/>
<polygon fill="black" stroke="black" points="144.172,-214.08 140.816,-204.031 137.173,-213.98 144.172,-214.08"/>
<text text-anchor="middle" x="171.5" y="-224.21" font-family="Helvetica,sans-Serif" font-size="8.00">bootTmr_Expired</text>
</g>
<!-- ANY -->
<g id="node4" class="node"><title>ANY</title>
<text text-anchor="middle" x="112" y="-475.155" font-family="Helvetica,sans-Serif" font-size="10.00">from any state</text>
</g>
<!-- ANY&#45;&gt;Off -->
<g id="edge17" class="edge"><title>ANY&#45;&gt;Off</title>
<path fill="none" stroke="black" d="M106.727,-468.088C100.605,-458.14 90.2855,-441.372 81.9853,-427.885"/>
<polygon fill="black" stroke="black" points="84.86,-425.878 76.638,-419.196 78.8985,-429.547 84.86,-425.878"/>
<text text-anchor="middle" x="123" y="-439.82" font-family="Helvetica,sans-Serif" font-size="8.00">PowerRemoved</text>
</g>
<!-- Standby -->
<g id="node7" class="node"><title>Standby</title>
<ellipse fill="none" stroke="black" cx="69" cy="-333.915" rx="37.4533" ry="13.3704"/>
<text text-anchor="middle" x="69" y="-331.415" font-family="Helvetica,sans-Serif" font-size="10.00">Standby</text>
</g>
<!-- Off&#45;&gt;Standby -->
<g id="edge18" class="edge"><title>Off&#45;&gt;Standby</title>
<path fill="none" stroke="black" d="M69,-392.294C69,-382.775 69,-369.402 69,-357.96"/>
<polygon fill="black" stroke="black" points="72.5001,-357.771 69,-347.771 65.5001,-357.771 72.5001,-357.771"/>
<text text-anchor="middle" x="95" y="-367.95" font-family="Helvetica,sans-Serif" font-size="8.00">PowerApplied</text>
</g>
<!-- Shutdown&#45;&gt;Standby -->
<g id="edge19" class="edge"><title>Shutdown&#45;&gt;Standby</title>
<path fill="none" stroke="black" d="M59.5412,-115.057C57.0948,-138.121 52.6528,-188.306 55,-230.61 56.7805,-262.7 58.1097,-270.715 63,-302.48 63.3944,-305.042 63.8525,-307.716 64.3365,-310.37"/>
<polygon fill="black" stroke="black" points="60.9077,-311.073 66.2509,-320.222 67.7792,-309.738 60.9077,-311.073"/>
<text text-anchor="middle" x="96" y="-224.21" font-family="Helvetica,sans-Serif" font-size="8.00">shutdownTmr_Expired</text>
</g>
<!-- Standby&#45;&gt;Booting -->
<g id="edge20" class="edge"><title>Standby&#45;&gt;Booting</title>
<path fill="none" stroke="black" d="M66.075,-320.499C64.8403,-312.165 64.7182,-301.318 70,-293.48 76.8851,-283.264 88.0014,-276.454 99.3676,-271.923"/>
<polygon fill="black" stroke="black" points="100.581,-275.207 108.887,-268.629 98.2918,-268.592 100.581,-275.207"/>
<text text-anchor="middle" x="94" y="-296.08" font-family="Helvetica,sans-Serif" font-size="8.00">PowerButton</text>
</g>
<!-- Standby&#45;&gt;Booting -->
<g id="edge21" class="edge"><title>Standby&#45;&gt;Booting</title>
<path fill="none" stroke="black" d="M90.2291,-322.835C99.5402,-317.679 110.119,-310.74 118,-302.48 122.901,-297.343 127.088,-290.906 130.452,-284.731"/>
<polygon fill="black" stroke="black" points="133.739,-285.981 135.047,-275.468 127.468,-282.871 133.739,-285.981"/>
<text text-anchor="middle" x="143" y="-296.08" font-family="Helvetica,sans-Serif" font-size="8.00">IgnitionOn</text>
</g>
<!-- Apps_Navi -->
<g id="node9" class="node"><title>Apps_Navi</title>
<ellipse fill="none" stroke="black" cx="173" cy="-29.435" rx="27" ry="13.3704"/>
<text text-anchor="middle" x="173" y="-26.935" font-family="Helvetica,sans-Serif" font-size="10.00">Navi</text>
</g>
<!-- Apps_Radio&#45;&gt;Apps_Navi -->
<g id="edge2" class="edge"><title>Apps_Radio&#45;&gt;Apps_Navi</title>
<path fill="none" stroke="black" d="M168.547,-93.336C157.198,-88.6495 144.623,-81.206 138,-69.8701 132.961,-61.2451 138.577,-52.8077 146.681,-45.9651"/>
<polygon fill="black" stroke="black" points="148.927,-48.6588 154.946,-39.9394 144.803,-43.0025 148.927,-48.6588"/>
<text text-anchor="middle" x="158" y="-63.4701" font-family="Helvetica,sans-Serif" font-size="8.00">NaviButton</text>
</g>
<!-- Apps_Navi&#45;&gt;Apps_Radio -->
<g id="edge3" class="edge"><title>Apps_Navi&#45;&gt;Apps_Radio</title>
<path fill="none" stroke="black" d="M176.367,-42.8183C179.007,-52.5252 182.75,-66.289 185.911,-77.9152"/>
<polygon fill="black" stroke="black" points="182.602,-79.0826 188.603,-87.8137 189.356,-77.2457 182.602,-79.0826"/>
<text text-anchor="middle" x="206" y="-63.4701" font-family="Helvetica,sans-Serif" font-size="8.00">RadioButton</text>
</g>
<!-- Vol_IncVol -->
<g id="node11" class="node"><title>Vol_IncVol</title>
<ellipse fill="none" stroke="black" cx="343" cy="-29.435" rx="31.2258" ry="13.3704"/>
<text text-anchor="middle" x="343" y="-26.935" font-family="Helvetica,sans-Serif" font-size="10.00">IncVol</text>
</g>
<!-- Vol_On&#45;&gt;Vol_IncVol -->
<g id="edge6" class="edge"><title>Vol_On&#45;&gt;Vol_IncVol</title>
<path fill="none" stroke="black" d="M446.788,-100.017C399.955,-98.8813 307.19,-93.6116 287,-69.8701 276.991,-58.0998 291.569,-48.1185 308.354,-41.1425"/>
<polygon fill="black" stroke="black" points="309.649,-44.3949 317.764,-37.5838 307.173,-37.8475 309.649,-44.3949"/>
<text text-anchor="middle" x="311.5" y="-63.4701" font-family="Helvetica,sans-Serif" font-size="8.00">VolKnobRight</text>
</g>
<!-- Vol_Mute -->
<g id="node12" class="node"><title>Vol_Mute</title>
<ellipse fill="none" stroke="black" cx="655" cy="-29.435" rx="27" ry="13.3704"/>
<text text-anchor="middle" x="655" y="-26.935" font-family="Helvetica,sans-Serif" font-size="10.00">Mute</text>
</g>
<!-- Vol_On&#45;&gt;Vol_Mute -->
<g id="edge5" class="edge"><title>Vol_On&#45;&gt;Vol_Mute</title>
<path fill="none" stroke="black" d="M494.411,-92.4259C526.271,-80.1274 587.99,-56.3023 624.943,-42.0377"/>
<polygon fill="black" stroke="black" points="626.595,-45.1519 634.663,-38.2854 624.074,-38.6215 626.595,-45.1519"/>
<text text-anchor="middle" x="595.5" y="-63.4701" font-family="Helvetica,sans-Serif" font-size="8.00">MuteButton</text>
</g>
<!-- Vol_DecVol -->
<g id="node13" class="node"><title>Vol_DecVol</title>
<ellipse fill="none" stroke="black" cx="455" cy="-29.435" rx="33.8824" ry="13.3704"/>
<text text-anchor="middle" x="455" y="-26.935" font-family="Helvetica,sans-Serif" font-size="10.00">DecVol</text>
</g>
<!-- Vol_On&#45;&gt;Vol_DecVol -->
<g id="edge7" class="edge"><title>Vol_On&#45;&gt;Vol_DecVol</title>
<path fill="none" stroke="black" d="M458.095,-90.1127C451.499,-84.9337 444.565,-78.0082 441,-69.8701 438.497,-64.1576 439.247,-57.842 441.35,-51.9701"/>
<polygon fill="black" stroke="black" points="444.634,-53.2188 445.83,-42.6917 438.33,-50.175 444.634,-53.2188"/>
<text text-anchor="middle" x="464" y="-63.4701" font-family="Helvetica,sans-Serif" font-size="8.00">VolKnobLeft</text>
</g>
<!-- Vol_IncVol&#45;&gt;Vol_On -->
<g id="edge8" class="edge"><title>Vol_IncVol&#45;&gt;Vol_On</title>
<path fill="none" stroke="black" d="M350.841,-42.735C356.987,-51.4557 366.275,-62.8177 377,-69.8701 395.626,-82.1173 419.484,-89.688 438.877,-94.2155"/>
<polygon fill="black" stroke="black" points="438.331,-97.6782 448.845,-96.3712 439.81,-90.8364 438.331,-97.6782"/>
<text text-anchor="middle" x="406.5" y="-63.4701" font-family="Helvetica,sans-Serif" font-size="8.00">VolChangeDone</text>
</g>
<!-- Vol_Mute&#45;&gt;Vol_On -->
<g id="edge9" class="edge"><title>Vol_Mute&#45;&gt;Vol_On</title>
<path fill="none" stroke="black" d="M647.313,-42.6796C641.054,-51.6095 631.405,-63.2608 620,-69.8701 586.434,-89.3219 542.145,-96.4297 511.184,-98.9797"/>
<polygon fill="black" stroke="black" points="510.559,-95.5148 500.828,-99.7044 511.048,-102.498 510.559,-95.5148"/>
<text text-anchor="middle" x="652.5" y="-63.4701" font-family="Helvetica,sans-Serif" font-size="8.00">MuteButton</text>
</g>
<!-- Vol_Mute&#45;&gt;Vol_On -->
<g id="edge10" class="edge"><title>Vol_Mute&#45;&gt;Vol_On</title>
<path fill="none" stroke="black" d="M668.179,-41.5629C676.485,-49.9078 684.367,-61.3161 677,-69.8701 656.059,-94.185 564.118,-99.3516 511.436,-100.278"/>
<polygon fill="black" stroke="black" points="511.095,-96.7818 501.142,-100.414 511.188,-103.781 511.095,-96.7818"/>
<text text-anchor="middle" x="703.5" y="-63.4701" font-family="Helvetica,sans-Serif" font-size="8.00">VolKnobRight</text>
</g>
<!-- Vol_DecVol&#45;&gt;Vol_On -->
<g id="edge11" class="edge"><title>Vol_DecVol&#45;&gt;Vol_On</title>
<path fill="none" stroke="black" d="M471.108,-41.2784C477.299,-46.4102 483.675,-53.1194 487,-60.8701 489.476,-66.642 488.761,-73.0528 486.74,-78.9991"/>
<polygon fill="black" stroke="black" points="483.428,-77.8243 482.439,-88.3728 489.791,-80.7435 483.428,-77.8243"/>
<text text-anchor="middle" x="517.5" y="-63.4701" font-family="Helvetica,sans-Serif" font-size="8.00">VolChangeDone</text>
</g>
</g>
</svg>
